<svg version="1.1" id="Layer_1" xmlns="http://www.w3.org/2000/svg" xmlns:xlink="http://www.w3.org/1999/xlink" x="0px" y="0px"
	 width="100%" viewBox="0 0 1024 1024" enable-background="new 0 0 1024 1024" xml:space="preserve">
<path fill="#0A0A0A" opacity="1.000000" stroke="none" 
	d="
M676.000000,1025.000000 
	C450.666656,1025.000000 225.833328,1025.000000 1.000000,1025.000000 
	C1.000000,683.666687 1.000000,342.333344 1.000000,1.000000 
	C342.333344,1.000000 683.666687,1.000000 1025.000000,1.000000 
	C1025.000000,342.333344 1025.000000,683.666687 1025.000000,1025.000000 
	C908.833313,1025.000000 792.666687,1025.000000 676.000000,1025.000000 
M424.577911,625.296631 
	C422.020233,625.418030 419.807587,625.729187 422.147552,629.549866 
	C421.714203,629.942810 421.280884,630.335754 420.515228,629.928223 
	C419.854156,630.072083 419.193054,630.215942 418.531982,630.359802 
	C418.852203,630.966980 419.172424,631.574097 419.207550,632.778076 
	C418.146301,633.866272 417.085052,634.954407 415.938904,635.476929 
	C415.638489,635.149902 415.338074,634.822937 415.037628,634.495911 
	C414.859467,634.702637 414.681274,634.909363 414.503082,635.116089 
	C415.015442,635.418152 415.527832,635.720276 415.857788,636.636353 
	C414.942596,637.513977 414.027405,638.391663 412.763916,638.723206 
	C410.635498,640.343384 408.507111,641.963562 406.378662,643.583740 
	C406.896942,644.050049 407.415192,644.516296 407.743073,645.601257 
	C406.524292,646.811646 405.305511,648.022034 403.872833,648.383179 
	C402.609680,647.746338 401.346527,647.109558 399.928406,645.864868 
	C400.142853,644.377441 400.357330,642.890076 400.974060,641.996704 
	C401.564240,641.933594 402.154419,641.870422 402.744629,641.807251 
	C402.040131,641.202759 401.335632,640.598328 400.505432,639.063782 
	C400.505432,633.484985 400.505432,627.906250 400.505432,622.323181 
	C407.290436,622.323181 413.041718,622.323181 418.074463,622.323181 
	C418.074463,579.683350 418.074463,537.457275 418.074463,494.655212 
	C411.067780,494.655212 405.140564,494.655212 398.889282,494.655212 
	C398.889282,483.790588 398.889282,473.506195 398.889282,462.814209 
	C396.159668,462.814209 393.791565,462.814209 391.002625,462.814209 
	C391.002625,473.618378 391.002625,484.041504 391.002625,495.047302 
	C385.366943,495.047302 380.134186,495.047302 374.477142,495.047302 
	C373.711304,537.671814 372.955994,579.710266 372.192963,622.180237 
	C378.804047,622.180237 384.710266,622.180237 391.122711,622.180237 
	C391.122711,634.059387 391.079956,645.523621 391.168671,656.986938 
	C391.182068,658.712036 391.809753,660.432373 391.698608,662.976440 
	C389.353821,666.453186 392.318909,665.563354 393.904877,665.563171 
	C459.708710,665.555908 525.513245,665.326477 591.316223,665.554688 
	C648.017212,665.751282 681.793335,622.152161 687.426331,584.631226 
	C691.910400,554.763489 690.689575,524.456909 687.168579,494.443848 
	C685.212463,477.770172 676.374817,464.961151 661.625427,456.575165 
	C655.126465,452.880096 648.497192,449.414154 642.039490,444.960480 
	C641.700867,438.306580 641.362244,431.652679 641.806335,424.801025 
	C642.175842,424.292267 642.876160,423.777222 642.866638,423.275635 
	C642.605469,409.507050 642.297607,395.739014 641.873840,381.974731 
	C641.853027,381.299805 640.713135,380.659363 639.979187,379.332031 
	C640.055176,378.887421 640.131165,378.442780 640.986511,377.956207 
	C644.616882,376.242371 643.272888,372.983978 642.422119,370.779938 
	C641.931335,369.508606 639.031738,368.798187 637.121765,368.543182 
	C635.047729,368.266235 632.861633,368.786987 630.728699,369.002869 
	C627.919067,369.287201 627.004517,368.029266 626.945374,365.252350 
	C626.772644,357.141937 626.396362,349.033752 625.944458,340.933350 
	C625.859131,339.403412 625.358093,336.816559 624.536682,336.592072 
	C620.672913,335.536316 616.022034,333.675842 612.859802,334.995880 
	C610.642822,335.921295 608.472412,342.357666 609.591003,344.843567 
	C612.718628,351.793793 609.507080,358.276398 609.826050,364.908295 
	C609.872986,365.883057 607.844543,367.686127 606.607971,367.852234 
	C603.395508,368.283752 599.984070,367.528442 596.857605,368.201569 
	C594.787659,368.647278 593.072510,370.741577 591.198547,372.097809 
	C592.118652,372.731262 593.038757,373.364716 594.136597,374.736908 
	C594.098083,375.491089 594.059631,376.245239 593.230591,377.189484 
	C592.851868,377.687653 592.150757,378.181000 592.143127,378.684753 
	C592.043701,385.307281 591.975525,391.932526 592.100403,398.553314 
	C592.116028,399.378662 593.284119,400.182281 594.046814,401.744598 
	C593.973877,402.497223 593.900940,403.249847 593.023682,404.046692 
	C592.349976,405.151764 591.224854,406.206299 591.094360,407.372192 
	C590.800903,409.993134 591.026672,412.669678 590.994202,415.323029 
	C590.932983,420.330872 589.998474,420.884399 585.474182,419.039551 
	C583.978577,418.429749 582.260681,418.364929 580.436035,418.010437 
	C581.580627,426.838348 580.911194,434.627716 578.320923,441.335876 
	C578.950928,444.796906 579.492065,447.671265 579.993164,450.552582 
	C580.429443,453.061615 580.820496,455.578491 581.141846,458.733398 
	C581.066833,459.155975 580.991821,459.578552 580.244751,460.128723 
	C579.429688,461.014221 578.614685,461.899719 576.863708,463.801971 
	C576.136658,458.717957 575.105347,454.752747 575.100891,450.786377 
	C575.092102,443.014709 575.767700,435.244995 575.948914,427.469513 
	C576.109619,420.574646 576.194458,413.661163 575.802979,406.784912 
	C575.727356,405.456177 573.406189,403.358826 571.929443,403.177826 
	C567.834412,402.675903 563.636414,402.918549 559.483032,403.023529 
	C556.945129,403.087646 555.772461,402.204651 556.067017,399.532867 
	C556.749451,393.341309 557.507263,387.149628 557.884705,380.936768 
	C558.052002,378.182159 557.710327,375.277740 556.940002,372.633514 
	C556.534180,371.240479 554.850342,369.508759 553.494324,369.253418 
	C550.773987,368.741150 547.850037,368.894348 545.076294,369.266266 
	C543.788330,369.438965 541.771790,370.614746 541.603760,371.595856 
	C540.842712,376.037994 540.378052,380.567780 540.282715,385.076080 
	C540.197632,389.097412 540.536499,393.157654 541.050659,397.154114 
	C541.695374,402.165802 539.510986,403.477325 534.865234,403.132599 
	C532.965637,402.991669 530.956055,404.332947 528.248596,405.102325 
	C527.597778,406.568634 526.523804,407.999847 526.398499,409.509766 
	C526.224792,411.603577 526.938477,413.754303 526.965515,415.884552 
	C527.052551,422.737213 526.871704,429.594727 527.038147,436.444458 
	C527.182678,442.395172 527.945190,448.339142 527.916809,454.283630 
	C527.880127,461.976807 527.169739,469.664825 527.040100,477.359955 
	C526.874756,487.169983 526.988831,496.984955 527.003601,506.797729 
	C527.015015,514.355896 529.132141,516.182434 536.542908,515.087524 
	C542.140869,514.260498 542.981140,514.956055 542.994812,520.504395 
	C543.009521,526.491882 542.763611,532.494263 543.138611,538.458191 
	C543.258057,540.357117 545.000061,542.153931 546.131409,544.718994 
	C550.178772,548.048401 556.239807,547.063354 556.756958,542.647888 
	C557.481873,536.458557 557.750061,530.126648 557.320312,523.917664 
	C556.937500,518.387085 559.093933,515.020142 564.512817,515.001160 
	C566.508484,514.994202 568.504150,514.990417 570.499756,515.000244 
	C574.879578,515.021851 577.252075,513.391968 577.074829,508.467285 
	C576.793823,500.661102 577.010681,492.837402 576.993958,485.021149 
	C576.989563,482.959900 576.795715,480.823151 580.025208,481.629150 
	C580.099976,482.054504 580.174744,482.479858 579.644592,482.994080 
	C579.485840,483.044617 579.311035,483.068878 579.172974,483.153198 
	C579.039673,483.234558 578.837036,483.468506 578.847595,483.480988 
	C579.325562,484.046417 579.717529,484.821350 580.335571,485.111053 
	C588.509705,488.943451 596.795776,492.546326 604.882568,496.552368 
	C609.296570,498.739014 613.544067,501.353790 617.589355,504.173340 
	C625.411316,509.625214 625.755615,518.254944 625.881775,526.497864 
	C626.049927,537.482788 625.089355,548.482727 625.177856,559.471680 
	C625.253662,568.895447 625.674194,577.944763 620.459412,586.711853 
	C613.726501,598.031128 599.105652,605.768860 586.626343,603.848328 
	C578.979858,602.671570 571.148926,602.143372 563.412048,602.237915 
	C552.921082,602.366150 542.447327,603.540894 531.953735,603.940857 
	C524.300537,604.232544 516.627136,604.002197 508.962769,603.996582 
	C502.821014,603.992126 502.170380,603.356323 502.005798,597.212891 
	C501.979034,596.213928 501.960876,595.211670 502.008759,594.214294 
	C502.159027,591.084473 501.522247,587.527161 502.843658,585.000061 
	C503.553131,583.643188 507.651611,584.072571 510.213318,583.650085 
	C510.495331,583.603577 510.727448,583.254578 511.613892,582.911865 
	C512.042358,582.875977 512.470825,582.840027 513.356873,583.398621 
	C516.806763,584.603516 516.895264,582.173889 516.981445,579.943176 
	C517.352722,570.332581 517.725769,560.721313 517.983765,551.107300 
	C518.267456,540.539734 518.550903,529.968933 518.557678,519.399353 
	C518.559570,516.455017 517.855957,513.238159 514.089478,512.548462 
	C510.552338,511.900879 506.931610,511.677185 503.424286,510.914581 
	C501.894348,510.581909 499.423981,509.485168 499.327545,508.537323 
	C498.927704,504.608124 498.489075,500.389435 499.505341,496.670776 
	C501.604889,488.988342 498.161713,482.666229 490.287811,481.221069 
	C487.376312,480.686707 485.787231,481.333374 485.980225,484.659302 
	C486.311432,490.366791 486.386353,496.090729 486.794403,501.791656 
	C487.224121,507.795563 485.375061,509.463806 479.514862,509.197418 
	C475.406738,509.010620 470.266815,509.368134 469.301666,514.280151 
	C467.607483,522.902344 466.979889,531.740662 466.099121,540.507935 
	C465.986572,541.628357 467.042938,542.860657 467.538452,544.049194 
	C468.033997,545.237915 468.922821,546.437256 468.921509,547.631165 
	C468.910583,557.659729 468.943085,567.696960 468.520416,577.712891 
	C468.308105,582.743164 468.872742,583.905701 473.977173,583.988708 
	C477.529938,584.046509 481.084381,583.999817 484.996735,583.999817 
	C484.996735,590.060242 484.895844,595.152893 485.036774,600.238831 
	C485.114075,603.027771 484.086670,604.106323 481.270142,604.029663 
	C469.656281,603.713196 458.038055,603.558838 446.423523,603.263550 
	C443.624603,603.192322 441.868469,603.987671 441.939026,607.648682 
	C441.658783,607.844604 441.378540,608.040466 440.745972,607.697876 
	C438.289856,609.667786 435.833771,611.637756 433.377655,613.607666 
	C433.900696,614.067078 434.423737,614.526428 434.754761,615.606384 
	C433.543243,616.833862 432.331696,618.061279 430.767487,618.732422 
	C427.064178,619.422852 424.557861,621.033325 425.541229,625.542053 
	C425.541229,625.542053 425.406219,625.647705 424.577911,625.296631 
M230.378647,726.232971 
	C230.228897,730.312378 230.115784,734.393616 229.918915,738.470764 
	C229.729141,742.400574 231.965820,743.141296 235.311966,743.025452 
	C240.132126,742.858521 244.997070,743.345764 249.779007,742.887329 
	C254.927078,742.393921 256.218567,744.197693 256.138245,749.248718 
	C255.834061,768.381409 256.009674,787.521729 256.019257,806.659241 
	C256.022614,813.384460 256.637512,813.967834 263.534302,813.982178 
	C266.030487,813.987366 268.531952,813.879639 271.021698,814.006348 
	C275.246674,814.221191 277.084625,812.370361 277.022095,808.095032 
	C276.890656,799.110718 276.982574,790.123047 276.982910,781.136780 
	C276.983276,770.319946 276.957123,759.502930 277.002991,748.686279 
	C277.014404,745.994324 276.974823,742.999573 280.880585,743.028687 
	C285.269104,743.061340 289.664398,743.566833 294.041656,743.419434 
	C301.814087,743.157593 304.005707,742.265198 302.598480,734.265259 
	C302.284760,732.481628 301.912140,730.641602 302.039459,728.861328 
	C302.294647,725.292603 300.550781,723.298401 297.294189,723.136841 
	C286.334778,722.593201 275.363953,722.240540 264.393616,721.972656 
	C258.492310,721.828552 252.583206,722.015503 246.677551,722.035400 
	C243.016678,722.047791 239.280624,721.593506 235.727310,722.208862 
	C234.021667,722.504272 232.661392,724.793579 231.048492,726.044739 
	C231.048492,726.044739 231.183136,726.141663 230.378647,726.232971 
M314.163330,812.563904 
	C319.333008,816.038940 325.072479,813.830750 330.551300,814.074951 
	C331.287964,814.107788 332.720825,812.607849 332.771881,811.754272 
	C333.277618,803.305725 333.649048,794.845703 333.825989,786.384033 
	C333.859192,784.795532 332.862793,783.185486 332.230316,781.243896 
	C336.449524,782.981567 339.986969,784.633850 343.660919,785.885620 
	C346.275543,786.776489 351.135437,792.186462 350.437744,794.785583 
	C349.474487,798.373779 350.428741,800.354431 353.641144,802.037720 
	C354.857391,802.674927 355.569153,804.610901 356.134064,806.098022 
	C358.844025,813.231812 362.933319,817.918213 371.545319,816.075317 
	C373.933075,815.564392 376.576935,816.315857 379.004059,815.903870 
	C381.248169,815.522827 385.271149,814.175781 385.213043,813.570862 
	C384.883118,810.135864 384.023346,806.557373 382.435486,803.499329 
	C381.166138,801.054749 378.246613,799.518005 376.685547,797.163330 
	C373.430237,792.253052 370.589050,787.068237 367.398315,781.693970 
	C368.187805,780.065063 368.670807,777.433350 370.250092,776.100342 
	C376.257996,771.029236 379.120544,764.613647 380.581268,757.036377 
	C382.800262,745.525635 376.830475,730.485962 363.828247,725.708313 
	C362.953156,725.386780 362.356812,724.369141 361.505188,723.906738 
	C360.148468,723.170044 358.696716,722.117859 357.266479,722.087830 
	C349.029663,721.914856 340.768890,721.659180 332.552155,722.100586 
	C324.384735,722.539246 315.732697,721.076477 309.091614,726.566284 
	C310.068756,734.479431 311.727509,742.302368 311.858582,750.150818 
	C312.124847,766.096008 311.443359,782.054993 311.437988,798.008423 
	C311.436737,801.696655 312.583740,805.385376 313.091919,809.678406 
	C313.419952,810.387939 313.747986,811.097473 314.163330,812.563904 
M580.538574,728.444397 
	C580.664673,730.359985 580.489319,732.354126 580.964966,734.178589 
	C584.506592,747.762024 588.193726,761.307495 591.797119,774.875000 
	C592.846375,778.825684 593.789673,782.804871 594.750366,786.778564 
	C596.187500,792.723267 597.891357,798.623169 598.943481,804.636292 
	C600.234802,812.016113 602.187317,813.989319 609.675293,814.001038 
	C613.006531,814.006287 616.354614,813.791687 619.664490,814.057556 
	C623.353271,814.353882 625.268799,812.768066 626.057678,809.320923 
	C628.355957,799.278931 630.688293,789.244690 633.022095,779.210815 
	C634.095764,774.594299 635.203979,769.985779 636.296509,765.373596 
	C639.025452,771.631958 640.531067,777.691223 642.015381,783.755676 
	C644.097961,792.264587 645.987793,800.827454 648.377075,809.248962 
	C648.897705,811.084229 650.988525,813.487244 652.685852,813.791992 
	C658.603638,814.854370 664.659851,815.214783 670.679504,815.573120 
	C671.692261,815.633423 673.422974,814.576233 673.729248,813.667175 
	C675.033997,809.795288 676.015259,805.805481 676.954102,801.820984 
	C678.991089,793.175171 680.830261,784.481873 682.937622,775.853760 
	C684.902893,767.806824 687.057190,759.804565 689.238159,751.812622 
	C690.098511,748.660095 691.157288,745.551575 692.307861,742.491516 
	C693.354370,739.708069 694.947021,737.101929 695.749023,734.262329 
	C696.563721,731.378174 696.776306,728.311768 697.102356,725.308899 
	C697.209839,724.319519 697.139465,723.070679 696.607544,722.330566 
	C696.206116,721.772156 694.925415,721.604004 694.061340,721.658997 
	C688.530762,722.011108 683.007202,722.472961 676.238892,722.994446 
	C672.518311,737.602295 665.567017,753.034485 663.647034,770.107727 
	C662.330017,769.675171 661.804504,769.627502 661.436951,769.361572 
	C659.013245,767.607544 659.949097,763.886169 659.057129,762.783752 
	C656.589233,759.733765 657.386719,757.125244 657.519714,754.010315 
	C657.618286,751.702698 656.654053,749.256775 655.775635,747.025085 
	C654.784180,744.505859 652.979919,742.271912 652.206238,739.709473 
	C650.870605,735.286072 650.428162,730.569214 648.848328,726.254822 
	C648.193787,724.467468 645.686951,722.406555 643.827271,722.196167 
	C638.850891,721.633301 633.768738,722.004333 628.046692,722.004333 
	C623.951477,736.747620 619.676025,752.139893 615.154053,768.419617 
	C612.811523,764.296570 610.279236,761.268005 609.274231,757.797241 
	C606.499695,748.215637 604.446594,738.427490 601.932739,728.766724 
	C600.966980,725.055237 599.177673,722.312012 594.365540,722.881226 
	C591.141052,723.262634 587.787964,722.421997 584.487183,722.339783 
	C582.131104,722.281067 579.589600,722.415283 581.015320,726.679199 
	C581.052856,727.102783 581.090332,727.526367 580.538574,728.444397 
M492.066315,378.509277 
	C488.729340,376.985565 485.441833,375.620148 484.357208,371.377441 
	C484.091827,370.339417 481.175507,368.981415 479.980133,369.359222 
	C475.807526,370.678040 472.489594,369.378357 469.230255,367.127075 
	C466.919220,365.530762 464.836304,363.294861 462.283112,362.420746 
	C456.334412,360.384247 451.597443,358.080353 447.731079,352.106567 
	C443.386414,345.393768 440.293488,338.842255 440.093018,331.083984 
	C439.919891,324.383667 441.295471,317.589264 440.651245,310.966309 
	C439.295715,297.030334 445.153839,286.402222 458.044891,281.106049 
	C460.101685,280.260986 462.401367,279.220947 463.744171,277.579926 
	C467.032959,273.560791 470.377808,270.891022 475.984283,272.895050 
	C477.757355,273.528809 479.949890,273.040558 481.948151,272.984467 
	C493.147552,272.670105 504.347321,272.030151 515.544922,272.070618 
	C532.245911,272.131073 548.955872,272.405853 565.641357,273.091583 
	C576.286743,273.529114 586.790039,270.116180 597.712280,273.379395 
	C601.446960,274.495209 606.752441,270.108978 611.528442,273.638245 
	C612.750122,274.541077 614.461060,274.766449 615.919434,275.370148 
	C616.796875,275.733368 617.810547,276.785370 618.438416,276.572144 
	C623.434570,274.875519 623.829407,279.197052 624.571533,281.759064 
	C625.612915,285.353943 625.557068,289.270691 625.909058,293.055481 
	C625.947144,293.464661 625.578796,293.911682 625.360107,294.433807 
	C624.125427,293.984283 622.989014,293.570557 621.813599,293.142639 
	C620.204773,299.698792 620.798401,300.681854 626.361694,299.969727 
	C625.625549,304.050293 624.180481,308.017853 624.456116,311.862000 
	C624.661987,314.733704 626.468994,318.219269 628.702576,320.010376 
	C630.903442,321.775299 634.641174,322.453827 636.929016,318.822479 
	C638.733093,315.958801 640.573975,316.742371 643.037048,318.291107 
	C644.695251,319.333740 648.464294,320.104279 648.953857,319.391815 
	C651.192993,316.133484 654.280884,317.548798 657.008240,316.932556 
	C662.218323,315.755219 667.286316,321.809052 672.574768,317.098206 
	C673.052979,316.672272 674.677490,317.592072 675.786255,317.796265 
	C676.650146,317.955353 677.553345,318.112396 678.415771,318.028870 
	C681.339539,317.745850 684.460449,316.521545 687.125732,317.184937 
	C692.208252,318.450043 694.325623,315.503174 697.097656,311.807129 
	C692.027405,311.307678 693.064514,307.744385 693.006531,304.727722 
	C692.886047,298.468323 694.652710,292.153412 692.153320,285.935516 
	C691.740906,284.909485 693.051086,283.293793 693.223145,281.908112 
	C693.559387,279.200409 693.900024,276.449371 693.753052,273.742645 
	C693.669922,272.212158 692.354248,270.785004 692.056335,269.223022 
	C691.096558,264.191864 690.361023,259.118225 689.520813,254.063934 
	C688.869690,250.146301 688.191101,246.233231 687.524719,242.318130 
	C686.441895,240.261353 683.973450,238.644958 681.894531,236.627289 
	C676.757019,231.641052 671.878113,226.388153 666.734497,221.408417 
	C664.000977,218.761917 660.929688,216.464722 658.017151,214.002258 
	C656.398804,212.633957 654.978699,210.886780 653.142700,209.951157 
	C649.679993,208.186447 644.860168,211.696686 641.867004,207.281693 
	C641.788147,207.165344 640.528503,207.944260 639.778137,208.165726 
	C638.704102,208.482712 637.544495,209.008759 636.503235,208.862656 
	C621.161621,206.709915 605.803589,205.460678 590.262329,205.899750 
	C574.276367,206.351379 558.260315,206.303391 542.271057,205.914093 
	C526.501099,205.530106 510.757385,207.126328 494.981842,206.092407 
	C490.730286,205.813782 486.409760,206.762604 482.112305,206.972076 
	C473.308380,207.401154 464.493988,207.625061 455.693329,208.106400 
	C451.302765,208.346558 446.681671,208.221573 442.613007,209.592148 
	C436.549713,211.634628 430.722443,214.559540 425.080719,217.633820 
	C413.261322,224.074493 403.458710,233.145737 394.008575,242.581024 
	C392.680054,243.907471 392.018951,245.880035 390.927979,247.470581 
	C386.500824,253.925003 384.608765,262.171387 377.629761,266.560455 
	C379.230164,273.318909 376.796417,278.971619 373.099213,284.920197 
	C377.393555,287.619965 373.569733,289.905060 372.843170,292.592834 
	C373.285980,295.501465 373.023041,298.306824 372.563385,301.079529 
	C371.913025,305.003052 368.105621,308.857178 372.652771,312.884460 
	C373.260651,313.422882 372.635651,315.382263 372.540344,316.680573 
	C372.175659,321.649414 371.794128,326.617035 371.418884,331.585083 
	C371.968201,331.648102 372.517517,331.711090 373.066864,331.774078 
	C370.568146,334.178528 366.743958,336.451416 370.182068,340.330292 
	C374.361664,345.045776 375.148041,350.200897 372.036835,355.611115 
	C371.441559,356.646332 370.983582,358.274628 371.371063,359.278473 
	C374.128937,366.423035 376.842560,373.608704 380.107574,380.527740 
	C384.973450,390.839447 391.847137,399.508484 401.787506,405.590179 
	C411.737915,411.678009 421.146576,418.584259 432.027527,423.184357 
	C439.875732,426.502350 447.235046,430.972931 454.838531,434.878540 
	C455.852600,435.399445 457.070557,435.513672 458.108765,435.998840 
	C464.465057,438.969391 470.792816,442.001007 477.141418,444.988190 
	C478.001068,445.392670 478.910248,445.708038 479.820465,445.986145 
	C484.761658,447.496002 490.281525,447.923401 493.039490,453.402039 
	C493.360260,454.039246 494.285431,454.511261 495.031097,454.773499 
	C500.914398,456.842346 507.325165,457.028198 512.904175,460.507874 
	C514.546143,461.531891 517.854919,460.037750 520.312988,459.375366 
	C520.577881,459.303955 520.749207,456.696381 520.136963,455.904846 
	C515.206421,449.530090 519.282837,442.469482 518.563049,435.788391 
	C518.044006,430.970490 519.595581,425.966095 519.760071,421.029449 
	C520.007019,413.614990 520.082764,406.176086 519.738037,398.770569 
	C519.612610,396.076111 518.866028,392.085693 517.042480,391.024811 
	C509.225250,386.476776 500.901031,382.800171 492.066315,378.509277 
M767.905273,737.184753 
	C776.756165,736.091858 781.720093,740.336914 783.094543,748.351074 
	C788.457581,748.351074 793.214294,748.351074 798.318726,748.351074 
	C798.521545,738.801025 795.001282,731.738403 787.035645,727.263245 
	C777.413086,721.857300 767.442200,722.250916 757.100098,725.472046 
	C746.507568,728.771240 740.652100,734.693237 739.519958,744.686584 
	C738.226624,756.102417 742.655273,765.236145 752.350708,770.046875 
	C756.014709,771.864868 760.105408,772.888184 764.077454,774.003540 
	C769.021057,775.391846 774.315186,775.867493 778.971924,777.868469 
	C787.302979,781.448303 788.463867,792.675842 781.404297,797.381287 
	C770.413452,804.707031 755.381165,798.077148 753.593262,784.345581 
	C749.094543,784.345581 744.461548,784.171265 739.862915,784.491943 
	C738.938477,784.556396 737.455505,786.465759 737.397644,787.584839 
	C736.780579,799.519226 744.720032,809.775024 756.527649,812.021484 
	C761.566833,812.980164 766.762817,813.404968 771.898560,813.504272 
	C782.369873,813.706787 791.791931,811.119934 797.816833,801.591919 
	C807.759705,785.868225 800.579529,767.776611 782.019592,762.121765 
	C775.995544,760.286316 769.661255,759.480286 763.611328,757.715210 
	C756.390381,755.608582 753.512939,749.201965 756.494507,742.867615 
	C758.617920,738.356384 763.153381,738.417786 767.905273,737.184753 
M480.005249,749.560364 
	C486.806915,741.829773 493.608551,734.099243 500.722168,726.014099 
	C494.158112,726.014099 488.570679,726.308105 483.034271,725.903442 
	C479.730865,725.661987 477.998749,727.214478 476.175842,729.394043 
	C468.641846,738.401855 461.062866,747.372253 453.445770,756.309814 
	C452.596985,757.305725 451.399902,758.004822 449.556274,759.494446 
	C449.556274,747.466431 449.556274,736.631592 449.556274,725.975159 
	C443.929504,725.975159 438.726288,725.975159 434.034668,725.975159 
	C434.034668,754.855042 434.034668,783.219727 434.034668,811.466614 
	C439.524353,811.466614 444.447632,811.466614 449.749390,811.466614 
	C449.749390,798.774841 449.749390,786.392456 449.749390,774.114136 
	C453.850098,772.768982 456.570007,773.501343 458.986511,777.018982 
	C466.238312,787.574951 473.808258,797.913208 481.319000,808.289307 
	C482.254150,809.581299 483.530640,811.510315 484.733856,811.575500 
	C490.906677,811.909485 497.107300,811.730103 504.896271,811.730103 
	C492.116180,794.677979 480.304810,778.918396 468.264679,762.853638 
	C471.732300,759.043518 475.744202,754.635315 480.005249,749.560364 
M846.549133,774.892517 
	C853.316223,774.892517 860.083313,774.892517 867.211182,774.892517 
	C866.720886,769.635864 866.280884,764.918335 865.796448,759.725098 
	C854.477844,759.725098 843.418518,759.725098 832.648315,759.725098 
	C832.648315,753.274963 832.648315,747.336548 832.648315,740.784180 
	C845.299194,740.784180 857.494995,740.784180 869.858582,740.784180 
	C869.858582,736.347778 870.104370,732.509888 869.712952,728.738159 
	C869.591125,727.564087 867.775330,725.672058 866.682190,725.634277 
	C858.075012,725.336609 849.455017,725.394104 840.838867,725.371765 
	C832.933228,725.351257 825.027466,725.367432 816.686646,725.367432 
	C816.686646,754.935547 816.686646,783.141479 816.686646,811.489685 
	C834.695374,811.489685 852.621460,811.489685 871.144958,811.489685 
	C870.824280,806.418030 870.518494,801.581543 870.207886,796.670044 
	C856.921204,796.670044 844.395142,796.670044 832.250854,796.670044 
	C832.250854,789.136963 832.250854,782.042847 832.250854,774.860535 
	C837.032532,774.860535 841.302002,774.860535 846.549133,774.892517 
M516.783020,746.500488 
	C516.783020,768.081787 516.783020,789.663025 516.783020,811.396606 
	C534.491333,811.396606 552.530823,811.396606 571.086792,811.396606 
	C570.790405,806.343262 570.514526,801.640625 570.223877,796.684692 
	C556.919678,796.684692 544.228149,796.684692 531.868530,796.684692 
	C531.868530,789.160095 531.868530,782.077148 531.868530,774.854736 
	C543.814453,774.854736 555.200989,774.854736 567.031128,774.854736 
	C566.694946,769.847351 566.369080,764.994141 566.015991,759.734558 
	C554.419373,759.734558 543.344177,759.734558 532.409180,759.734558 
	C532.409180,753.040833 532.409180,746.799255 532.409180,740.483032 
	C544.925171,740.483032 556.973999,740.483032 569.087524,740.483032 
	C569.087524,735.528931 569.087524,730.659607 569.087524,725.908325 
	C551.454529,725.908325 534.230469,725.908325 516.774536,725.908325 
	C516.774536,732.880249 516.774536,739.190369 516.783020,746.500488 
M189.532623,816.993042 
	C195.433548,816.236084 201.786011,816.598816 207.124115,814.446167 
	C214.217255,811.585815 221.658813,807.960266 224.548569,799.783569 
	C227.135895,792.462708 228.832245,785.285278 226.249298,777.168701 
	C223.457199,768.394775 217.421463,764.502014 209.532501,761.929321 
	C201.658173,759.361511 193.739853,756.886475 186.012909,753.922241 
	C179.937912,751.591675 179.108978,748.892761 182.290863,743.984253 
	C185.338501,739.282959 190.214722,739.604736 194.836044,740.098572 
	C198.440369,740.483704 201.301208,742.015808 202.225952,746.307007 
	C202.586807,747.981506 204.801788,750.080688 206.514343,750.466003 
	C209.951691,751.239319 213.684219,751.451538 217.186478,751.018372 
	C223.168976,750.278442 224.715942,747.804626 223.965836,741.878479 
	C223.538544,738.502930 223.191574,735.117188 222.862869,732.216431 
	C220.469116,730.528931 218.135056,728.593689 215.538757,727.120728 
	C211.595932,724.883789 207.598572,722.643860 203.394440,720.989380 
	C196.658340,718.338623 189.782776,720.041992 182.909760,720.930054 
	C174.916992,721.962830 168.863144,726.170166 163.594727,731.773132 
	C157.083786,738.697571 158.393723,747.367065 159.508072,755.467346 
	C160.843323,765.173340 166.650528,771.617676 176.549057,774.122070 
	C184.549515,776.146362 192.500412,778.430542 200.321945,781.051147 
	C202.189453,781.676758 204.477661,783.932800 204.775070,785.735535 
	C205.331146,789.106262 206.325546,793.681030 201.538925,795.066101 
	C197.469162,796.243774 192.673920,797.738831 188.967606,796.598206 
	C184.794373,795.313843 178.915985,794.640137 178.443375,787.461243 
	C178.086533,782.040833 175.381516,781.175171 169.769745,781.772644 
	C166.794754,782.089417 163.708008,781.356506 160.187424,781.056091 
	C154.328995,787.109741 156.139069,802.758911 163.777039,807.792786 
	C171.365936,812.794250 179.530731,816.154175 189.532623,816.993042 
M706.764404,795.495483 
	C706.764404,800.769409 706.764404,806.043335 706.764404,811.556641 
	C712.218445,811.556641 717.431519,811.556641 722.218933,811.556641 
	C722.218933,782.704346 722.218933,754.194397 722.218933,725.799927 
	C716.487671,725.799927 711.423340,725.799927 706.798218,725.799927 
	C706.798218,748.983582 706.798218,771.739990 706.764404,795.495483 
M415.993896,799.492432 
	C416.328003,779.709900 416.715698,759.927979 416.947418,740.144287 
	C416.989807,736.527283 416.016296,732.884766 416.188141,729.286316 
	C416.435944,724.098572 414.750549,721.866272 409.634705,722.026123 
	C406.857452,722.112915 404.035797,722.840942 401.324524,722.518982 
	C396.676453,721.967102 395.099365,722.864197 395.027039,727.471008 
	C394.651062,751.417725 394.206299,775.364624 394.051178,799.313171 
	C393.951233,814.738098 395.995636,816.362305 411.404572,815.010376 
	C414.641998,814.726318 416.243835,813.420166 416.034698,809.980164 
	C415.842957,806.826660 415.993927,803.652344 415.993896,799.492432 
z"/>
<path fill="#FDFDFD" opacity="1.000000" stroke="none" 
	d="
M580.916870,460.001129 
	C580.991821,459.578552 581.066833,459.155975 581.554321,458.216980 
	C582.339172,445.652283 582.711548,433.604004 583.100830,421.008545 
	C586.904175,422.463409 589.945190,423.626678 593.120728,424.947693 
	C593.255188,425.105469 593.656982,425.207825 593.856323,425.577820 
	C594.357971,427.196198 594.919983,428.443939 594.923157,429.693024 
	C594.962769,445.520813 594.921509,461.348785 594.902039,477.176727 
	C594.899048,479.619720 594.901672,482.062683 594.901672,484.708496 
	C610.236084,484.708496 624.988159,484.708496 640.471436,484.708496 
	C640.471436,473.195007 640.414001,461.919006 640.536133,450.644928 
	C640.553589,449.039825 641.441895,447.444183 641.927124,445.844177 
	C648.497192,449.414154 655.126465,452.880096 661.625427,456.575165 
	C676.374817,464.961151 685.212463,477.770172 687.168579,494.443848 
	C690.689575,524.456909 691.910400,554.763489 687.426331,584.631226 
	C681.793335,622.152161 648.017212,665.751282 591.316223,665.554688 
	C525.513245,665.326477 459.708710,665.555908 393.904877,665.563171 
	C392.318909,665.563354 389.353821,666.453186 392.235474,662.430115 
	C394.255554,660.165894 395.738770,658.447998 397.447968,656.613403 
	C398.085358,655.981567 398.496765,655.466492 398.946533,654.953918 
	C398.984863,654.956482 398.960571,654.883606 399.164307,654.819519 
	C399.649261,654.593811 399.770111,654.352051 400.001190,653.838745 
	C401.543457,652.175720 402.815063,650.704102 404.086700,649.232422 
	C405.305511,648.022034 406.524292,646.811646 408.137207,645.155518 
	C410.058350,642.896301 411.585297,641.082825 413.112244,639.269409 
	C414.027405,638.391663 414.942596,637.513977 415.927185,636.319702 
	C415.996613,636.003113 416.023834,636.042603 416.023834,636.042603 
	C417.085052,634.954407 418.146301,633.866272 419.567017,632.400452 
	C420.233521,631.591431 420.540527,631.160034 420.847534,630.728638 
	C421.280884,630.335754 421.714203,629.942810 422.598175,629.073975 
	C423.834625,627.614685 424.620422,626.631226 425.406250,625.647705 
	C425.406219,625.647705 425.541229,625.542053 425.843018,625.289978 
	C427.803253,623.121521 429.461700,621.205139 431.120178,619.288757 
	C432.331696,618.061279 433.543243,616.833862 435.151123,615.153809 
	C437.397766,612.546326 439.248016,610.391357 441.098267,608.236328 
	C441.378540,608.040466 441.658783,607.844604 442.443115,607.249390 
	C444.920166,606.776550 446.892670,606.652771 448.866058,606.637817 
	C461.927795,606.538696 474.989746,606.462952 488.495117,606.500916 
	C493.348053,606.609741 497.757477,606.597290 502.718323,606.617065 
	C531.244141,606.661621 559.218567,606.703491 587.192993,606.677307 
	C612.160828,606.653870 627.982727,590.988525 628.239380,565.882996 
	C628.382324,551.897949 627.832520,537.898376 628.262695,523.925903 
	C628.648865,511.381409 623.110352,502.901978 612.205444,497.648468 
	C601.638428,492.557709 590.908142,487.805908 580.249512,482.905212 
	C580.174744,482.479858 580.099976,482.054504 580.055237,480.894409 
	C580.362427,473.440125 580.639648,466.720642 580.916870,460.001129 
z"/>
<path fill="#FB1214" opacity="1.000000" stroke="none" 
	d="
M397.222015,656.730103 
	C395.738770,658.447998 394.255554,660.165894 392.462799,662.019348 
	C391.809753,660.432373 391.182068,658.712036 391.168671,656.986938 
	C391.079956,645.523621 391.122711,634.059387 391.122711,622.180237 
	C384.710266,622.180237 378.804047,622.180237 372.192963,622.180237 
	C372.955994,579.710266 373.711304,537.671814 374.477142,495.047302 
	C380.134186,495.047302 385.366943,495.047302 391.002625,495.047302 
	C391.002625,484.041504 391.002625,473.618378 391.002625,462.814209 
	C393.791565,462.814209 396.159668,462.814209 398.889282,462.814209 
	C398.889282,473.506195 398.889282,483.790588 398.889282,494.655212 
	C405.140564,494.655212 411.067780,494.655212 418.074463,494.655212 
	C418.074463,537.457275 418.074463,579.683350 418.074463,622.323181 
	C413.041718,622.323181 407.290436,622.323181 400.505432,622.323181 
	C400.505432,627.906250 400.505432,633.484985 400.463806,639.754028 
	C400.345703,640.783508 400.395569,641.102966 400.571808,641.402649 
	C400.357330,642.890076 400.142853,644.377441 400.020935,646.184204 
	C400.113495,646.503479 400.094452,646.535828 399.854553,646.668152 
	C399.456024,647.533630 399.297424,648.266724 399.012695,649.220703 
	C398.878601,649.772888 398.870636,650.104126 398.609314,650.688232 
	C398.230713,651.630432 398.105469,652.319702 397.880249,653.143433 
	C397.780304,653.277893 397.835327,653.608398 397.605164,653.856140 
	C397.324036,654.979309 397.273010,655.854675 397.222015,656.730103 
z"/>
<path fill="#FD1214" opacity="1.000000" stroke="none" 
	d="
M641.983276,445.402344 
	C641.441895,447.444183 640.553589,449.039825 640.536133,450.644928 
	C640.414001,461.919006 640.471436,473.195007 640.471436,484.708496 
	C624.988159,484.708496 610.236084,484.708496 594.901672,484.708496 
	C594.901672,482.062683 594.899048,479.619720 594.902039,477.176727 
	C594.921509,461.348785 594.962769,445.520813 594.923157,429.693024 
	C594.919983,428.443939 594.357971,427.196198 594.008362,425.204102 
	C593.842712,423.671021 593.724365,422.881683 593.698242,421.627258 
	C593.803040,415.442261 593.815491,409.722351 593.827942,404.002472 
	C593.900940,403.249847 593.973877,402.497223 594.082275,400.910858 
	C594.085571,392.384552 594.053345,384.691986 594.021118,376.999420 
	C594.059631,376.245239 594.098083,375.491089 594.115234,373.936584 
	C595.041382,372.371643 595.938293,371.038940 596.945740,370.949371 
	C599.906494,370.686279 602.911316,370.964691 605.898376,370.944336 
	C612.595337,370.898712 612.656982,370.877777 612.704651,364.085144 
	C612.767151,355.185974 612.720032,346.285980 612.720032,337.540009 
	C623.025391,336.146057 622.829590,336.152466 623.130371,345.354523 
	C623.404968,353.755554 624.166321,362.140625 624.749695,371.093384 
	C630.375916,371.093384 635.413208,371.093384 640.720642,371.093384 
	C640.518494,373.811951 640.362793,375.905060 640.207153,377.998169 
	C640.131165,378.442780 640.055176,378.887421 639.936829,380.127289 
	C640.270813,395.614624 640.647217,410.306702 641.023560,424.998779 
	C641.362244,431.652679 641.700867,438.306580 641.983276,445.402344 
z"/>
<path fill="#F8F8F8" opacity="1.000000" stroke="none" 
	d="
M581.127808,727.949951 
	C581.090332,727.526367 581.052856,727.102783 581.422607,726.277832 
	C587.044922,725.926636 593.845459,723.999268 597.044434,726.563965 
	C600.480713,729.319092 600.698486,736.250793 602.033264,741.434021 
	C605.822083,756.146484 609.464355,770.896606 613.261902,786.020447 
	C614.062683,784.784424 614.921570,783.981995 615.144165,783.030701 
	C616.638733,776.644104 617.885498,770.198669 619.425781,763.823853 
	C622.238892,752.181519 625.097229,740.547119 628.229309,728.988708 
	C628.618042,727.554199 630.700867,725.745056 632.149353,725.598633 
	C635.555115,725.254028 639.058167,726.030090 642.510193,725.934082 
	C645.360779,725.854797 646.436096,726.753113 647.079651,729.663208 
	C650.551270,745.361572 654.311462,760.996338 658.005310,776.645203 
	C658.908203,780.470154 659.935608,784.265747 660.932007,788.177979 
	C666.500488,766.809998 671.936646,745.949585 677.265198,725.502075 
	C682.862793,725.502075 687.787170,725.502075 693.063721,725.502075 
	C692.795715,727.053955 692.688416,728.180786 692.401978,729.260071 
	C686.387268,751.916260 680.359558,774.569092 674.315369,797.217468 
	C673.074585,801.867004 673.143494,808.409424 670.098938,810.615356 
	C666.828552,812.984863 660.581665,811.031982 655.669861,811.421570 
	C652.065186,811.707397 650.748291,810.276550 650.019775,806.941406 
	C646.790771,792.157715 643.344299,777.421509 639.972534,762.669006 
	C639.017151,758.488892 638.048462,754.311768 636.880310,749.241211 
	C632.032532,770.804993 627.450317,791.187866 622.858887,811.611572 
	C616.317383,811.611572 610.357361,811.611572 603.960754,811.611572 
	C603.069397,808.695129 602.077942,805.727173 601.255981,802.713013 
	C597.994019,790.752502 594.716003,778.795471 591.585815,766.800171 
	C590.038025,760.868835 588.975952,754.809021 587.374695,748.893738 
	C585.471741,741.863953 583.225342,734.927063 581.127808,727.949951 
z"/>
<path fill="#080708" opacity="1.000000" stroke="none" 
	d="
M492.413940,378.657593 
	C500.901031,382.800171 509.225250,386.476776 517.042480,391.024811 
	C518.866028,392.085693 519.612610,396.076111 519.738037,398.770569 
	C520.082764,406.176086 520.007019,413.614990 519.760071,421.029449 
	C519.595581,425.966095 518.044006,430.970490 518.563049,435.788391 
	C519.282837,442.469482 515.206421,449.530090 520.136963,455.904846 
	C520.749207,456.696381 520.577881,459.303955 520.312988,459.375366 
	C517.854919,460.037750 514.546143,461.531891 512.904175,460.507874 
	C507.325165,457.028198 500.914398,456.842346 495.031097,454.773499 
	C494.285431,454.511261 493.360260,454.039246 493.039490,453.402039 
	C490.281525,447.923401 484.761658,447.496002 479.820465,445.986145 
	C478.910248,445.708038 478.001068,445.392670 477.141418,444.988190 
	C470.792816,442.001007 464.465057,438.969391 458.108765,435.998840 
	C457.070557,435.513672 455.852600,435.399445 454.838531,434.878540 
	C447.235046,430.972931 439.875732,426.502350 432.027527,423.184357 
	C421.146576,418.584259 411.737915,411.678009 401.787506,405.590179 
	C391.847137,399.508484 384.973450,390.839447 380.107574,380.527740 
	C376.842560,373.608704 374.128937,366.423035 371.371063,359.278473 
	C370.983582,358.274628 371.441559,356.646332 372.036835,355.611115 
	C375.148041,350.200897 374.361664,345.045776 370.182068,340.330292 
	C366.743958,336.451416 370.568146,334.178528 373.066864,331.774078 
	C372.517517,331.711090 371.968201,331.648102 371.418884,331.585083 
	C371.794128,326.617035 372.175659,321.649414 372.540344,316.680573 
	C372.635651,315.382263 373.260651,313.422882 372.652771,312.884460 
	C368.105621,308.857178 371.913025,305.003052 372.563385,301.079529 
	C373.023041,298.306824 373.285980,295.501465 372.843170,292.592834 
	C373.569733,289.905060 377.393555,287.619965 373.099213,284.920197 
	C376.796417,278.971619 379.230164,273.318909 377.629761,266.560455 
	C384.608765,262.171387 386.500824,253.925003 390.927979,247.470581 
	C392.018951,245.880035 392.680054,243.907471 394.008575,242.581024 
	C403.458710,233.145737 413.261322,224.074493 425.080719,217.633820 
	C430.722443,214.559540 436.549713,211.634628 442.613007,209.592148 
	C446.681671,208.221573 451.302765,208.346558 455.693329,208.106400 
	C464.493988,207.625061 473.308380,207.401154 482.112305,206.972076 
	C486.409760,206.762604 490.730286,205.813782 494.981842,206.092407 
	C510.757385,207.126328 526.501099,205.530106 542.271057,205.914093 
	C558.260315,206.303391 574.276367,206.351379 590.262329,205.899750 
	C605.803589,205.460678 621.161621,206.709915 636.503235,208.862656 
	C637.544495,209.008759 638.704102,208.482712 639.778137,208.165726 
	C640.528503,207.944260 641.788147,207.165344 641.867004,207.281693 
	C644.860168,211.696686 649.679993,208.186447 653.142700,209.951157 
	C654.978699,210.886780 656.398804,212.633957 658.017151,214.002258 
	C660.929688,216.464722 664.000977,218.761917 666.734497,221.408417 
	C671.878113,226.388153 676.757019,231.641052 681.894531,236.627289 
	C683.973450,238.644958 686.441895,240.261353 687.524719,242.318130 
	C688.191101,246.233231 688.869690,250.146301 689.520813,254.063934 
	C690.361023,259.118225 691.096558,264.191864 692.056335,269.223022 
	C692.354248,270.785004 693.669922,272.212158 693.753052,273.742645 
	C693.900024,276.449371 693.559387,279.200409 693.223145,281.908112 
	C693.051086,283.293793 691.740906,284.909485 692.153320,285.935516 
	C694.652710,292.153412 692.886047,298.468323 693.006531,304.727722 
	C693.064514,307.744385 692.027405,311.307678 697.097656,311.807129 
	C694.325623,315.503174 692.208252,318.450043 687.125732,317.184937 
	C684.460449,316.521545 681.339539,317.745850 678.415771,318.028870 
	C677.553345,318.112396 676.650146,317.955353 675.786255,317.796265 
	C674.677490,317.592072 673.052979,316.672272 672.574768,317.098206 
	C667.286316,321.809052 662.218323,315.755219 657.008240,316.932556 
	C654.280884,317.548798 651.192993,316.133484 648.953857,319.391815 
	C648.464294,320.104279 644.695251,319.333740 643.037048,318.291107 
	C640.573975,316.742371 638.733093,315.958801 636.929016,318.822479 
	C634.641174,322.453827 630.903442,321.775299 628.702576,320.010376 
	C626.468994,318.219269 624.661987,314.733704 624.456116,311.862000 
	C624.180481,308.017853 625.625549,304.050293 626.361694,299.969727 
	C620.798401,300.681854 620.204773,299.698792 621.813599,293.142639 
	C622.989014,293.570557 624.125427,293.984283 625.360107,294.433807 
	C625.578796,293.911682 625.947144,293.464661 625.909058,293.055481 
	C625.557068,289.270691 625.612915,285.353943 624.571533,281.759064 
	C623.829407,279.197052 623.434570,274.875519 618.438416,276.572144 
	C617.810547,276.785370 616.796875,275.733368 615.919434,275.370148 
	C614.461060,274.766449 612.750122,274.541077 611.528442,273.638245 
	C606.752441,270.108978 601.446960,274.495209 597.712280,273.379395 
	C586.790039,270.116180 576.286743,273.529114 565.641357,273.091583 
	C548.955872,272.405853 532.245911,272.131073 515.544922,272.070618 
	C504.347321,272.030151 493.147552,272.670105 481.948151,272.984467 
	C479.949890,273.040558 477.757355,273.528809 475.984283,272.895050 
	C470.377808,270.891022 467.032959,273.560791 463.744171,277.579926 
	C462.401367,279.220947 460.101685,280.260986 458.044891,281.106049 
	C445.153839,286.402222 439.295715,297.030334 440.651245,310.966309 
	C441.295471,317.589264 439.919891,324.383667 440.093018,331.083984 
	C440.293488,338.842255 443.386414,345.393768 447.731079,352.106567 
	C451.597443,358.080353 456.334412,360.384247 462.283112,362.420746 
	C464.836304,363.294861 466.919220,365.530762 469.230255,367.127075 
	C472.489594,369.378357 475.807526,370.678040 479.980133,369.359222 
	C481.175507,368.981415 484.091827,370.339417 484.357208,371.377441 
	C485.441833,375.620148 488.729340,376.985565 492.413940,378.657593 
M437.962708,335.566711 
	C438.022308,324.135742 436.687195,312.483673 438.456268,301.323700 
	C441.382996,282.860931 457.155731,268.559753 478.924042,268.647064 
	C522.903137,268.823456 566.884094,268.547028 610.864258,268.447357 
	C618.381836,268.430328 623.696228,271.903076 626.358521,279.441895 
	C627.610229,282.986176 628.242188,286.887909 628.384216,290.656738 
	C628.683716,298.601990 628.475342,306.566376 628.475342,314.610168 
	C649.125183,314.610168 669.810730,314.610168 690.554382,314.610168 
	C690.336670,312.226562 690.050964,310.280640 689.998108,308.328369 
	C689.615479,294.205200 689.618042,280.061798 688.827209,265.962463 
	C688.140320,253.716614 683.763245,242.641373 675.693176,233.225189 
	C661.847900,217.070404 643.499268,210.399536 622.997131,210.223480 
	C570.189514,209.769974 517.373901,209.757797 464.565521,210.134216 
	C445.634796,210.269150 428.169495,216.218536 413.319458,228.412155 
	C394.477325,243.883682 380.516937,262.658844 377.330414,287.472321 
	C374.179871,312.005707 374.422363,336.680511 377.577484,361.241180 
	C380.316681,382.564056 391.376251,398.309387 410.345215,408.475677 
	C413.126404,409.966248 415.801880,411.674438 418.653442,413.010437 
	C450.109924,427.747894 481.590576,442.433807 513.075256,457.110992 
	C513.572754,457.342896 514.203308,457.289581 514.875671,457.384003 
	C515.157532,453.612061 515.548645,450.146240 515.653748,446.671722 
	C516.142273,430.520447 516.356445,414.357300 517.138367,398.221161 
	C517.315369,394.569550 516.298218,393.226440 513.216553,391.711517 
	C493.551147,382.044220 474.095062,371.950165 454.404999,362.334564 
	C443.442566,356.981079 438.263000,348.388245 437.962708,335.566711 
z"/>
<path fill="#F9F9F9" opacity="1.000000" stroke="none" 
	d="
M314.076019,811.807007 
	C313.747986,811.097473 313.419952,810.387939 313.519714,809.146851 
	C313.947540,781.049438 313.947540,753.483643 313.947540,726.043335 
	C326.185333,726.043335 337.812073,726.020447 349.438568,726.061646 
	C351.931244,726.070435 354.440582,726.168213 356.912354,726.469971 
	C367.004761,727.702026 373.775146,733.206848 376.812103,742.868591 
	C379.019897,749.892517 378.747803,757.046997 375.913696,763.887085 
	C373.224304,770.377747 368.826599,775.360168 361.548889,777.620667 
	C368.891083,789.624329 376.006195,801.256836 383.285889,813.158386 
	C377.449951,813.158386 372.135895,812.889465 366.866364,813.257568 
	C363.623169,813.484131 362.178528,812.277649 360.855713,809.521301 
	C356.332947,800.097107 351.595764,790.773865 346.795074,781.487183 
	C346.122650,780.186340 344.708984,778.477417 343.518616,778.376892 
	C339.116791,778.005371 334.664734,778.229126 329.810883,778.229126 
	C329.810883,789.732117 329.810883,800.627808 329.810883,811.807007 
	C324.276581,811.807007 319.176300,811.807007 314.076019,811.807007 
M360.297302,758.350403 
	C360.673065,756.406555 361.333557,754.468079 361.370331,752.517822 
	C361.473694,747.036560 358.589813,742.406555 354.225372,741.980713 
	C346.370575,741.214417 338.457764,741.042847 330.563721,740.622498 
	C330.563721,749.045166 330.563721,756.890747 330.563721,764.857544 
	C337.453827,764.857544 343.925171,764.954834 350.391846,764.822754 
	C354.588684,764.737061 358.246765,763.422668 360.297302,758.350403 
z"/>
<path fill="#16C343" opacity="1.000000" stroke="none" 
	d="
M502.166931,606.584839 
	C497.757477,606.597290 493.348053,606.609741 488.529388,606.076538 
	C488.088562,598.570923 488.155151,591.607849 487.933990,584.653870 
	C487.894562,583.414062 486.661774,582.212219 485.887299,580.832397 
	C485.531952,580.801514 485.269318,580.931152 484.679321,581.139893 
	C483.907654,581.176575 483.463287,581.134094 482.745056,580.788635 
	C481.512115,580.322510 480.556946,580.047607 479.593475,580.014526 
	C473.021027,579.788513 473.013000,579.804932 473.005707,573.375610 
	C472.997467,566.122192 473.082275,558.867493 472.957916,551.616211 
	C472.920044,549.409058 472.323944,547.211487 471.913849,544.544373 
	C471.875671,535.099609 472.123199,526.113342 471.847931,517.143188 
	C471.709045,512.616455 473.341248,511.565643 477.445282,512.497131 
	C479.521759,512.968506 481.755402,512.698303 483.899017,512.935059 
	C486.761292,513.251221 488.134125,512.416443 488.205353,509.208282 
	C488.395142,500.661377 488.892822,492.121307 489.263824,483.675781 
	C497.012848,486.365723 497.016754,486.365784 496.918976,494.425049 
	C496.858429,499.413208 497.159821,504.444763 496.588440,509.374481 
	C496.182495,512.876831 497.555908,513.217407 500.344788,513.296753 
	C504.284363,513.408813 508.293640,513.559570 512.102234,514.436218 
	C513.436707,514.743408 515.086182,517.192139 515.187073,518.753723 
	C515.678284,526.359070 515.693726,533.995117 515.671753,542.012085 
	C515.313843,551.609558 515.161804,560.815186 514.942932,570.469238 
	C514.217163,574.879761 513.558228,578.841980 512.899292,582.804077 
	C512.470825,582.840027 512.042358,582.875977 510.862244,582.910278 
	C506.591553,582.552612 503.072449,582.196594 499.391296,581.824158 
	C499.391296,590.085327 499.391296,597.904663 499.391296,605.811401 
	C500.320465,606.070312 501.243713,606.327637 502.166931,606.584839 
z"/>
<path fill="#F9F9F9" opacity="1.000000" stroke="none" 
	d="
M767.488342,737.248718 
	C763.153381,738.417786 758.617920,738.356384 756.494507,742.867615 
	C753.512939,749.201965 756.390381,755.608582 763.611328,757.715210 
	C769.661255,759.480286 775.995544,760.286316 782.019592,762.121765 
	C800.579529,767.776611 807.759705,785.868225 797.816833,801.591919 
	C791.791931,811.119934 782.369873,813.706787 771.898560,813.504272 
	C766.762817,813.404968 761.566833,812.980164 756.527649,812.021484 
	C744.720032,809.775024 736.780579,799.519226 737.397644,787.584839 
	C737.455505,786.465759 738.938477,784.556396 739.862915,784.491943 
	C744.461548,784.171265 749.094543,784.345581 753.593262,784.345581 
	C755.381165,798.077148 770.413452,804.707031 781.404297,797.381287 
	C788.463867,792.675842 787.302979,781.448303 778.971924,777.868469 
	C774.315186,775.867493 769.021057,775.391846 764.077454,774.003540 
	C760.105408,772.888184 756.014709,771.864868 752.350708,770.046875 
	C742.655273,765.236145 738.226624,756.102417 739.519958,744.686584 
	C740.652100,734.693237 746.507568,728.771240 757.100098,725.472046 
	C767.442200,722.250916 777.413086,721.857300 787.035645,727.263245 
	C795.001282,731.738403 798.521545,738.801025 798.318726,748.351074 
	C793.214294,748.351074 788.457581,748.351074 783.094543,748.351074 
	C781.720093,740.336914 776.756165,736.091858 767.488342,737.248718 
z"/>
<path fill="#F8F8F8" opacity="1.000000" stroke="none" 
	d="
M479.880676,749.893738 
	C475.744202,754.635315 471.732300,759.043518 468.264679,762.853638 
	C480.304810,778.918396 492.116180,794.677979 504.896271,811.730103 
	C497.107300,811.730103 490.906677,811.909485 484.733856,811.575500 
	C483.530640,811.510315 482.254150,809.581299 481.319000,808.289307 
	C473.808258,797.913208 466.238312,787.574951 458.986511,777.018982 
	C456.570007,773.501343 453.850098,772.768982 449.749390,774.114136 
	C449.749390,786.392456 449.749390,798.774841 449.749390,811.466614 
	C444.447632,811.466614 439.524353,811.466614 434.034668,811.466614 
	C434.034668,783.219727 434.034668,754.855042 434.034668,725.975159 
	C438.726288,725.975159 443.929504,725.975159 449.556274,725.975159 
	C449.556274,736.631592 449.556274,747.466431 449.556274,759.494446 
	C451.399902,758.004822 452.596985,757.305725 453.445770,756.309814 
	C461.062866,747.372253 468.641846,738.401855 476.175842,729.394043 
	C477.998749,727.214478 479.730865,725.661987 483.034271,725.903442 
	C488.570679,726.308105 494.158112,726.014099 500.722168,726.014099 
	C493.608551,734.099243 486.806915,741.829773 479.880676,749.893738 
z"/>
<path fill="#F9F9F9" opacity="1.000000" stroke="none" 
	d="
M846.060303,774.876526 
	C841.302002,774.860535 837.032532,774.860535 832.250854,774.860535 
	C832.250854,782.042847 832.250854,789.136963 832.250854,796.670044 
	C844.395142,796.670044 856.921204,796.670044 870.207886,796.670044 
	C870.518494,801.581543 870.824280,806.418030 871.144958,811.489685 
	C852.621460,811.489685 834.695374,811.489685 816.686646,811.489685 
	C816.686646,783.141479 816.686646,754.935547 816.686646,725.367432 
	C825.027466,725.367432 832.933228,725.351257 840.838867,725.371765 
	C849.455017,725.394104 858.075012,725.336609 866.682190,725.634277 
	C867.775330,725.672058 869.591125,727.564087 869.712952,728.738159 
	C870.104370,732.509888 869.858582,736.347778 869.858582,740.784180 
	C857.494995,740.784180 845.299194,740.784180 832.648315,740.784180 
	C832.648315,747.336548 832.648315,753.274963 832.648315,759.725098 
	C843.418518,759.725098 854.477844,759.725098 865.796448,759.725098 
	C866.280884,764.918335 866.720886,769.635864 867.211182,774.892517 
	C860.083313,774.892517 853.316223,774.892517 846.060303,774.876526 
z"/>
<path fill="#FAFAFA" opacity="1.000000" stroke="none" 
	d="
M516.778809,746.000488 
	C516.774536,739.190369 516.774536,732.880249 516.774536,725.908325 
	C534.230469,725.908325 551.454529,725.908325 569.087524,725.908325 
	C569.087524,730.659607 569.087524,735.528931 569.087524,740.483032 
	C556.973999,740.483032 544.925171,740.483032 532.409180,740.483032 
	C532.409180,746.799255 532.409180,753.040833 532.409180,759.734558 
	C543.344177,759.734558 554.419373,759.734558 566.015991,759.734558 
	C566.369080,764.994141 566.694946,769.847351 567.031128,774.854736 
	C555.200989,774.854736 543.814453,774.854736 531.868530,774.854736 
	C531.868530,782.077148 531.868530,789.160095 531.868530,796.684692 
	C544.228149,796.684692 556.919678,796.684692 570.223877,796.684692 
	C570.514526,801.640625 570.790405,806.343262 571.086792,811.396606 
	C552.530823,811.396606 534.491333,811.396606 516.783020,811.396606 
	C516.783020,789.663025 516.783020,768.081787 516.778809,746.000488 
z"/>
<path fill="#080708" opacity="1.000000" stroke="none" 
	d="
M580.833191,728.197144 
	C583.225342,734.927063 585.471741,741.863953 587.374695,748.893738 
	C588.975952,754.809021 590.038025,760.868835 591.585815,766.800171 
	C594.716003,778.795471 597.994019,790.752502 601.255981,802.713013 
	C602.077942,805.727173 603.069397,808.695129 603.960754,811.611572 
	C610.357361,811.611572 616.317383,811.611572 622.858887,811.611572 
	C627.450317,791.187866 632.032532,770.804993 636.880310,749.241211 
	C638.048462,754.311768 639.017151,758.488892 639.972534,762.669006 
	C643.344299,777.421509 646.790771,792.157715 650.019775,806.941406 
	C650.748291,810.276550 652.065186,811.707397 655.669861,811.421570 
	C660.581665,811.031982 666.828552,812.984863 670.098938,810.615356 
	C673.143494,808.409424 673.074585,801.867004 674.315369,797.217468 
	C680.359558,774.569092 686.387268,751.916260 692.401978,729.260071 
	C692.688416,728.180786 692.795715,727.053955 693.063721,725.502075 
	C687.787170,725.502075 682.862793,725.502075 677.265198,725.502075 
	C671.936646,745.949585 666.500488,766.809998 660.932007,788.177979 
	C659.935608,784.265747 658.908203,780.470154 658.005310,776.645203 
	C654.311462,760.996338 650.551270,745.361572 647.079651,729.663208 
	C646.436096,726.753113 645.360779,725.854797 642.510193,725.934082 
	C639.058167,726.030090 635.555115,725.254028 632.149353,725.598633 
	C630.700867,725.745056 628.618042,727.554199 628.229309,728.988708 
	C625.097229,740.547119 622.238892,752.181519 619.425781,763.823853 
	C617.885498,770.198669 616.638733,776.644104 615.144165,783.030701 
	C614.921570,783.981995 614.062683,784.784424 613.261902,786.020447 
	C609.464355,770.896606 605.822083,756.146484 602.033264,741.434021 
	C600.698486,736.250793 600.480713,729.319092 597.044434,726.563965 
	C593.845459,723.999268 587.044922,725.926636 581.479492,725.962402 
	C579.589600,722.415283 582.131104,722.281067 584.487183,722.339783 
	C587.787964,722.421997 591.141052,723.262634 594.365540,722.881226 
	C599.177673,722.312012 600.966980,725.055237 601.932739,728.766724 
	C604.446594,738.427490 606.499695,748.215637 609.274231,757.797241 
	C610.279236,761.268005 612.811523,764.296570 615.154053,768.419617 
	C619.676025,752.139893 623.951477,736.747620 628.046692,722.004333 
	C633.768738,722.004333 638.850891,721.633301 643.827271,722.196167 
	C645.686951,722.406555 648.193787,724.467468 648.848328,726.254822 
	C650.428162,730.569214 650.870605,735.286072 652.206238,739.709473 
	C652.979919,742.271912 654.784180,744.505859 655.775635,747.025085 
	C656.654053,749.256775 657.618286,751.702698 657.519714,754.010315 
	C657.386719,757.125244 656.589233,759.733765 659.057129,762.783752 
	C659.949097,763.886169 659.013245,767.607544 661.436951,769.361572 
	C661.804504,769.627502 662.330017,769.675171 663.647034,770.107727 
	C665.567017,753.034485 672.518311,737.602295 676.238892,722.994446 
	C683.007202,722.472961 688.530762,722.011108 694.061340,721.658997 
	C694.925415,721.604004 696.206116,721.772156 696.607544,722.330566 
	C697.139465,723.070679 697.209839,724.319519 697.102356,725.308899 
	C696.776306,728.311768 696.563721,731.378174 695.749023,734.262329 
	C694.947021,737.101929 693.354370,739.708069 692.307861,742.491516 
	C691.157288,745.551575 690.098511,748.660095 689.238159,751.812622 
	C687.057190,759.804565 684.902893,767.806824 682.937622,775.853760 
	C680.830261,784.481873 678.991089,793.175171 676.954102,801.820984 
	C676.015259,805.805481 675.033997,809.795288 673.729248,813.667175 
	C673.422974,814.576233 671.692261,815.633423 670.679504,815.573120 
	C664.659851,815.214783 658.603638,814.854370 652.685852,813.791992 
	C650.988525,813.487244 648.897705,811.084229 648.377075,809.248962 
	C645.987793,800.827454 644.097961,792.264587 642.015381,783.755676 
	C640.531067,777.691223 639.025452,771.631958 636.296509,765.373596 
	C635.203979,769.985779 634.095764,774.594299 633.022095,779.210815 
	C630.688293,789.244690 628.355957,799.278931 626.057678,809.320923 
	C625.268799,812.768066 623.353271,814.353882 619.664490,814.057556 
	C616.354614,813.791687 613.006531,814.006287 609.675293,814.001038 
	C602.187317,813.989319 600.234802,812.016113 598.943481,804.636292 
	C597.891357,798.623169 596.187500,792.723267 594.750366,786.778564 
	C593.789673,782.804871 592.846375,778.825684 591.797119,774.875000 
	C588.193726,761.307495 584.506592,747.762024 580.964966,734.178589 
	C580.489319,732.354126 580.664673,730.359985 580.833191,728.197144 
z"/>
<path fill="#0F0F0F" opacity="1.000000" stroke="none" 
	d="
M189.089264,816.989441 
	C179.530731,816.154175 171.365936,812.794250 163.777039,807.792786 
	C156.139069,802.758911 154.328995,787.109741 160.187424,781.056091 
	C163.708008,781.356506 166.794754,782.089417 169.769745,781.772644 
	C175.381516,781.175171 178.086533,782.040833 178.443375,787.461243 
	C178.915985,794.640137 184.794373,795.313843 188.967606,796.598206 
	C192.673920,797.738831 197.469162,796.243774 201.538925,795.066101 
	C206.325546,793.681030 205.331146,789.106262 204.775070,785.735535 
	C204.477661,783.932800 202.189453,781.676758 200.321945,781.051147 
	C192.500412,778.430542 184.549515,776.146362 176.549057,774.122070 
	C166.650528,771.617676 160.843323,765.173340 159.508072,755.467346 
	C158.393723,747.367065 157.083786,738.697571 163.594727,731.773132 
	C168.863144,726.170166 174.916992,721.962830 182.909760,720.930054 
	C189.782776,720.041992 196.658340,718.338623 203.394440,720.989380 
	C207.598572,722.643860 211.595932,724.883789 215.538757,727.120728 
	C218.135056,728.593689 220.469116,730.528931 222.862869,732.216431 
	C223.191574,735.117188 223.538544,738.502930 223.965836,741.878479 
	C224.715942,747.804626 223.168976,750.278442 217.186478,751.018372 
	C213.684219,751.451538 209.951691,751.239319 206.514343,750.466003 
	C204.801788,750.080688 202.586807,747.981506 202.225952,746.307007 
	C201.301208,742.015808 198.440369,740.483704 194.836044,740.098572 
	C190.214722,739.604736 185.338501,739.282959 182.290863,743.984253 
	C179.108978,748.892761 179.937912,751.591675 186.012909,753.922241 
	C193.739853,756.886475 201.658173,759.361511 209.532501,761.929321 
	C217.421463,764.502014 223.457199,768.394775 226.249298,777.168701 
	C228.832245,785.285278 227.135895,792.462708 224.548569,799.783569 
	C221.658813,807.960266 214.217255,811.585815 207.124115,814.446167 
	C201.786011,816.598816 195.433548,816.236084 189.089264,816.989441 
M195.286285,776.160156 
	C197.507904,776.848633 199.777771,777.412842 201.940628,778.252686 
	C205.862457,779.775574 207.991318,782.535583 208.169189,786.954529 
	C208.504684,795.288696 204.935623,798.582458 193.970993,799.613708 
	C183.772659,800.572937 176.951126,796.754150 176.033752,789.552551 
	C175.851883,788.124817 175.759888,786.685669 175.607025,785.043030 
	C170.497025,784.811951 165.701462,784.581482 160.904007,784.400696 
	C160.456696,784.383911 159.997513,784.682251 159.583313,784.821045 
	C157.559921,797.796692 164.638168,809.178162 177.572464,811.606873 
	C185.455490,813.087036 193.874786,813.375122 201.835861,812.408630 
	C215.863831,810.705444 223.498566,802.485046 224.631241,790.032898 
	C225.892761,776.164185 221.015457,768.630493 206.679550,763.468384 
	C199.189163,760.771179 191.410507,758.877441 183.772705,756.585327 
	C180.104095,755.484314 177.142868,753.098145 177.446243,749.237610 
	C177.695343,746.067688 178.780609,741.869690 181.034592,740.175598 
	C185.933289,736.493896 191.982468,735.670410 198.091187,737.885132 
	C201.450287,739.102966 203.437439,741.247864 204.254852,744.857788 
	C204.533539,746.088562 206.383774,747.727478 207.632477,747.835754 
	C211.898239,748.205505 216.215836,747.977356 220.446747,747.977356 
	C221.682022,737.672607 216.600143,728.801697 207.161697,724.937561 
	C197.051453,720.798279 186.929504,722.088135 176.952713,725.656921 
	C166.437424,729.418335 161.324173,736.150696 161.162262,746.253540 
	C160.951248,759.419312 165.665070,767.485474 176.648560,771.388184 
	C182.412384,773.436279 188.526901,774.497314 195.286285,776.160156 
z"/>
<path fill="#F9F9F9" opacity="1.000000" stroke="none" 
	d="
M706.781311,794.995972 
	C706.798218,771.739990 706.798218,748.983582 706.798218,725.799927 
	C711.423340,725.799927 716.487671,725.799927 722.218933,725.799927 
	C722.218933,754.194397 722.218933,782.704346 722.218933,811.556641 
	C717.431519,811.556641 712.218445,811.556641 706.764404,811.556641 
	C706.764404,806.043335 706.764404,800.769409 706.781311,794.995972 
z"/>
<path fill="#0D0D0D" opacity="1.000000" stroke="none" 
	d="
M314.119690,812.185425 
	C319.176300,811.807007 324.276581,811.807007 329.810883,811.807007 
	C329.810883,800.627808 329.810883,789.732117 329.810883,778.229126 
	C334.664734,778.229126 339.116791,778.005371 343.518616,778.376892 
	C344.708984,778.477417 346.122650,780.186340 346.795074,781.487183 
	C351.595764,790.773865 356.332947,800.097107 360.855713,809.521301 
	C362.178528,812.277649 363.623169,813.484131 366.866364,813.257568 
	C372.135895,812.889465 377.449951,813.158386 383.285889,813.158386 
	C376.006195,801.256836 368.891083,789.624329 361.548889,777.620667 
	C368.826599,775.360168 373.224304,770.377747 375.913696,763.887085 
	C378.747803,757.046997 379.019897,749.892517 376.812103,742.868591 
	C373.775146,733.206848 367.004761,727.702026 356.912354,726.469971 
	C354.440582,726.168213 351.931244,726.070435 349.438568,726.061646 
	C337.812073,726.020447 326.185333,726.043335 313.947540,726.043335 
	C313.947540,753.483643 313.947540,781.049438 313.574951,808.844543 
	C312.583740,805.385376 311.436737,801.696655 311.437988,798.008423 
	C311.443359,782.054993 312.124847,766.096008 311.858582,750.150818 
	C311.727509,742.302368 310.068756,734.479431 309.091614,726.566284 
	C315.732697,721.076477 324.384735,722.539246 332.552155,722.100586 
	C340.768890,721.659180 349.029663,721.914856 357.266479,722.087830 
	C358.696716,722.117859 360.148468,723.170044 361.505188,723.906738 
	C362.356812,724.369141 362.953156,725.386780 363.828247,725.708313 
	C376.830475,730.485962 382.800262,745.525635 380.581268,757.036377 
	C379.120544,764.613647 376.257996,771.029236 370.250092,776.100342 
	C368.670807,777.433350 368.187805,780.065063 367.398315,781.693970 
	C370.589050,787.068237 373.430237,792.253052 376.685547,797.163330 
	C378.246613,799.518005 381.166138,801.054749 382.435486,803.499329 
	C384.023346,806.557373 384.883118,810.135864 385.213043,813.570862 
	C385.271149,814.175781 381.248169,815.522827 379.004059,815.903870 
	C376.576935,816.315857 373.933075,815.564392 371.545319,816.075317 
	C362.933319,817.918213 358.844025,813.231812 356.134064,806.098022 
	C355.569153,804.610901 354.857391,802.674927 353.641144,802.037720 
	C350.428741,800.354431 349.474487,798.373779 350.437744,794.785583 
	C351.135437,792.186462 346.275543,786.776489 343.660919,785.885620 
	C339.986969,784.633850 336.449524,782.981567 332.230316,781.243896 
	C332.862793,783.185486 333.859192,784.795532 333.825989,786.384033 
	C333.649048,794.845703 333.277618,803.305725 332.771881,811.754272 
	C332.720825,812.607849 331.287964,814.107788 330.551300,814.074951 
	C325.072479,813.830750 319.333008,816.038940 314.119690,812.185425 
z"/>
<path fill="#141414" opacity="1.000000" stroke="none" 
	d="
M231.144714,726.179871 
	C232.661392,724.793579 234.021667,722.504272 235.727310,722.208862 
	C239.280624,721.593506 243.016678,722.047791 246.677551,722.035400 
	C252.583206,722.015503 258.492310,721.828552 264.393616,721.972656 
	C275.363953,722.240540 286.334778,722.593201 297.294189,723.136841 
	C300.550781,723.298401 302.294647,725.292603 302.039459,728.861328 
	C301.912140,730.641602 302.284760,732.481628 302.598480,734.265259 
	C304.005707,742.265198 301.814087,743.157593 294.041656,743.419434 
	C289.664398,743.566833 285.269104,743.061340 280.880585,743.028687 
	C276.974823,742.999573 277.014404,745.994324 277.002991,748.686279 
	C276.957123,759.502930 276.983276,770.319946 276.982910,781.136780 
	C276.982574,790.123047 276.890656,799.110718 277.022095,808.095032 
	C277.084625,812.370361 275.246674,814.221191 271.021698,814.006348 
	C268.531952,813.879639 266.030487,813.987366 263.534302,813.982178 
	C256.637512,813.967834 256.022614,813.384460 256.019257,806.659241 
	C256.009674,787.521729 255.834061,768.381409 256.138245,749.248718 
	C256.218567,744.197693 254.927078,742.393921 249.779007,742.887329 
	C244.997070,743.345764 240.132126,742.858521 235.311966,743.025452 
	C231.965820,743.141296 229.729141,742.400574 229.918915,738.470764 
	C230.115784,734.393616 230.228897,730.312378 230.738342,726.598938 
	C231.721558,731.592468 232.345093,736.219971 232.910141,740.413452 
	C241.690414,740.413452 249.953812,740.413452 258.870850,740.413452 
	C258.870850,764.073486 258.870850,787.717041 258.870850,811.492432 
	C264.285248,811.492432 269.049255,811.492432 274.343933,811.492432 
	C274.343933,787.795898 274.343933,764.286743 274.343933,740.416809 
	C279.337250,740.416809 283.805664,740.457825 288.272949,740.403992 
	C291.882538,740.360474 297.076630,741.580078 298.681641,739.732300 
	C300.518372,737.617859 299.375549,732.715393 299.073975,729.061707 
	C298.980042,727.923584 297.415131,725.973877 296.519287,725.971436 
	C274.728088,725.911499 252.936356,726.064880 231.144714,726.179871 
z"/>
<path fill="#080708" opacity="1.000000" stroke="none" 
	d="
M483.018951,581.091675 
	C483.463287,581.134094 483.907654,581.176575 484.926422,581.178101 
	C485.660583,581.089050 485.820312,581.040955 485.980011,580.992859 
	C486.661774,582.212219 487.894562,583.414062 487.933990,584.653870 
	C488.155151,591.607849 488.088562,598.570923 488.085876,605.955322 
	C474.989746,606.462952 461.927795,606.538696 448.866058,606.637817 
	C446.892670,606.652771 444.920166,606.776550 442.497681,606.991516 
	C441.868469,603.987671 443.624603,603.192322 446.423523,603.263550 
	C458.038055,603.558838 469.656281,603.713196 481.270142,604.029663 
	C484.086670,604.106323 485.114075,603.027771 485.036774,600.238831 
	C484.895844,595.152893 484.996735,590.060242 484.996735,583.999817 
	C481.084381,583.999817 477.529938,584.046509 473.977173,583.988708 
	C468.872742,583.905701 468.308105,582.743164 468.520416,577.712891 
	C468.943085,567.696960 468.910583,557.659729 468.921509,547.631165 
	C468.922821,546.437256 468.033997,545.237915 467.538452,544.049194 
	C467.042938,542.860657 465.986572,541.628357 466.099121,540.507935 
	C466.979889,531.740662 467.607483,522.902344 469.301666,514.280151 
	C470.266815,509.368134 475.406738,509.010620 479.514862,509.197418 
	C485.375061,509.463806 487.224121,507.795563 486.794403,501.791656 
	C486.386353,496.090729 486.311432,490.366791 485.980225,484.659302 
	C485.787231,481.333374 487.376312,480.686707 490.287811,481.221069 
	C498.161713,482.666229 501.604889,488.988342 499.505341,496.670776 
	C498.489075,500.389435 498.927704,504.608124 499.327545,508.537323 
	C499.423981,509.485168 501.894348,510.581909 503.424286,510.914581 
	C506.931610,511.677185 510.552338,511.900879 514.089478,512.548462 
	C517.855957,513.238159 518.559570,516.455017 518.557678,519.399353 
	C518.550903,529.968933 518.267456,540.539734 517.983765,551.107300 
	C517.725769,560.721313 517.352722,570.332581 516.981445,579.943176 
	C516.895264,582.173889 516.806763,584.603516 513.128052,583.101379 
	C513.558228,578.841980 514.217163,574.879761 515.226624,570.161499 
	C515.677307,560.143677 515.777466,550.882019 515.877625,541.620300 
	C515.693726,533.995117 515.678284,526.359070 515.187073,518.753723 
	C515.086182,517.192139 513.436707,514.743408 512.102234,514.436218 
	C508.293640,513.559570 504.284363,513.408813 500.344788,513.296753 
	C497.555908,513.217407 496.182495,512.876831 496.588440,509.374481 
	C497.159821,504.444763 496.858429,499.413208 496.918976,494.425049 
	C497.016754,486.365784 497.012848,486.365723 489.263824,483.675781 
	C488.892822,492.121307 488.395142,500.661377 488.205353,509.208282 
	C488.134125,512.416443 486.761292,513.251221 483.899017,512.935059 
	C481.755402,512.698303 479.521759,512.968506 477.445282,512.497131 
	C473.341248,511.565643 471.709045,512.616455 471.847931,517.143188 
	C472.123199,526.113342 471.875671,535.099609 471.843933,545.007446 
	C471.784882,554.094421 471.717072,562.252991 471.669586,570.411743 
	C471.602722,581.902893 471.609131,581.902954 483.018951,581.091675 
z"/>
<path fill="#080708" opacity="1.000000" stroke="none" 
	d="
M502.718323,606.617126 
	C501.243713,606.327637 500.320465,606.070312 499.391296,605.811401 
	C499.391296,597.904663 499.391296,590.085327 499.391296,581.824158 
	C503.072449,582.196594 506.591553,582.552612 510.546631,582.977173 
	C510.727448,583.254578 510.495331,583.603577 510.213318,583.650085 
	C507.651611,584.072571 503.553131,583.643188 502.843658,585.000061 
	C501.522247,587.527161 502.159027,591.084473 502.008759,594.214294 
	C501.960876,595.211670 501.979034,596.213928 502.005798,597.212891 
	C502.170380,603.356323 502.821014,603.992126 508.962769,603.996582 
	C516.627136,604.002197 524.300537,604.232544 531.953735,603.940857 
	C542.447327,603.540894 552.921082,602.366150 563.412048,602.237915 
	C571.148926,602.143372 578.979858,602.671570 586.626343,603.848328 
	C599.105652,605.768860 613.726501,598.031128 620.459412,586.711853 
	C625.674194,577.944763 625.253662,568.895447 625.177856,559.471680 
	C625.089355,548.482727 626.049927,537.482788 625.881775,526.497864 
	C625.755615,518.254944 625.411316,509.625214 617.589355,504.173340 
	C613.544067,501.353790 609.296570,498.739014 604.882568,496.552368 
	C596.795776,492.546326 588.509705,488.943451 580.335571,485.111053 
	C579.717529,484.821350 579.325562,484.046417 578.847595,483.480988 
	C578.837036,483.468506 579.039673,483.234558 579.172974,483.153198 
	C579.311035,483.068878 579.485840,483.044617 579.947021,482.949646 
	C590.908142,487.805908 601.638428,492.557709 612.205444,497.648468 
	C623.110352,502.901978 628.648865,511.381409 628.262695,523.925903 
	C627.832520,537.898376 628.382324,551.897949 628.239380,565.882996 
	C627.982727,590.988525 612.160828,606.653870 587.192993,606.677307 
	C559.218567,606.703491 531.244141,606.661621 502.718323,606.617126 
z"/>
<path fill="#080708" opacity="1.000000" stroke="none" 
	d="
M580.580811,460.064941 
	C580.639648,466.720642 580.362427,473.440125 579.980469,480.579102 
	C576.795715,480.823151 576.989563,482.959900 576.993958,485.021149 
	C577.010681,492.837402 576.793823,500.661102 577.074829,508.467285 
	C577.252075,513.391968 574.879578,515.021851 570.499756,515.000244 
	C568.504150,514.990417 566.508484,514.994202 564.512817,515.001160 
	C559.093933,515.020142 556.937500,518.387085 557.320312,523.917664 
	C557.750061,530.126648 557.481873,536.458557 556.756958,542.647888 
	C556.239807,547.063354 550.178772,548.048401 546.173706,544.249146 
	C546.216064,543.779297 546.432617,543.561096 546.837402,543.667053 
	C549.470093,543.773010 551.698059,543.773010 554.016724,543.773010 
	C554.016724,532.986877 554.016724,523.015808 554.023499,513.032593 
	C554.030273,513.020508 554.042175,512.995483 554.351929,512.862549 
	C561.216125,512.384216 567.770630,512.038818 575.328064,511.640656 
	C574.099670,476.042084 572.887939,440.926758 571.653198,405.144348 
	C565.719543,405.144348 559.870178,405.144348 553.697571,405.144348 
	C553.697571,395.354218 553.697571,386.228119 553.768188,376.741699 
	C553.795532,375.895905 553.752319,375.410400 553.792847,374.599670 
	C553.644409,373.477264 553.412292,372.680054 553.131470,371.869202 
	C553.082825,371.855560 553.181641,371.834442 553.092651,371.583496 
	C552.671387,371.255585 552.339050,371.178650 551.608765,371.028870 
	C550.138123,371.013306 549.065430,371.070679 547.747253,371.089050 
	C547.501709,371.050049 547.015076,371.151642 546.677124,371.091095 
	C545.900574,371.135376 545.462036,371.240204 544.787781,371.435730 
	C544.467834,371.989929 544.383606,372.453491 544.290344,373.323334 
	C544.404541,374.256195 544.527832,374.782745 544.497192,375.726501 
	C544.343201,385.655975 544.343201,395.168274 544.343201,405.331635 
	C538.808960,405.331635 534.061890,405.331635 529.235474,405.248474 
	C529.156128,405.165314 528.996521,404.999969 528.996521,404.999939 
	C530.956055,404.332947 532.965637,402.991669 534.865234,403.132599 
	C539.510986,403.477325 541.695374,402.165802 541.050659,397.154114 
	C540.536499,393.157654 540.197632,389.097412 540.282715,385.076080 
	C540.378052,380.567780 540.842712,376.037994 541.603760,371.595856 
	C541.771790,370.614746 543.788330,369.438965 545.076294,369.266266 
	C547.850037,368.894348 550.773987,368.741150 553.494324,369.253418 
	C554.850342,369.508759 556.534180,371.240479 556.940002,372.633514 
	C557.710327,375.277740 558.052002,378.182159 557.884705,380.936768 
	C557.507263,387.149628 556.749451,393.341309 556.067017,399.532867 
	C555.772461,402.204651 556.945129,403.087646 559.483032,403.023529 
	C563.636414,402.918549 567.834412,402.675903 571.929443,403.177826 
	C573.406189,403.358826 575.727356,405.456177 575.802979,406.784912 
	C576.194458,413.661163 576.109619,420.574646 575.948914,427.469513 
	C575.767700,435.244995 575.092102,443.014709 575.100891,450.786377 
	C575.105347,454.752747 576.136658,458.717957 576.863708,463.801971 
	C578.614685,461.899719 579.429688,461.014221 580.580811,460.064941 
M577.049194,469.077240 
	C577.547607,469.413666 578.046082,469.750092 578.544556,470.086487 
	C578.544556,468.586792 578.544556,467.087097 578.544556,465.587402 
	C578.168640,465.599548 577.792786,465.611725 577.416870,465.623901 
	C577.282227,466.535645 577.147522,467.447418 577.049194,469.077240 
z"/>
<path fill="#0F0F0F" opacity="1.000000" stroke="none" 
	d="
M415.993896,799.989807 
	C415.993927,803.652344 415.842957,806.826660 416.034698,809.980164 
	C416.243835,813.420166 414.641998,814.726318 411.404572,815.010376 
	C395.995636,816.362305 393.951233,814.738098 394.051178,799.313171 
	C394.206299,775.364624 394.651062,751.417725 395.027039,727.471008 
	C395.099365,722.864197 396.676453,721.967102 401.324524,722.518982 
	C404.035797,722.840942 406.857452,722.112915 409.634705,722.026123 
	C414.750549,721.866272 416.435944,724.098572 416.188141,729.286316 
	C416.016296,732.884766 416.989807,736.527283 416.947418,740.144287 
	C416.715698,759.927979 416.328003,779.709900 415.993896,799.989807 
M398.309601,761.500122 
	C398.309601,778.061646 398.309601,794.623108 398.309601,811.357727 
	C403.445129,811.357727 408.499207,811.357727 413.455811,811.357727 
	C413.455811,782.656677 413.455811,754.332153 413.455811,725.729858 
	C407.815979,725.729858 402.615784,725.729858 398.311340,725.729858 
	C398.311340,737.583618 398.311340,749.041748 398.309601,761.500122 
z"/>
<path fill="#080708" opacity="1.000000" stroke="none" 
	d="
M546.107788,543.888428 
	C545.000061,542.153931 543.258057,540.357117 543.138611,538.458191 
	C542.763611,532.494263 543.009521,526.491882 542.994812,520.504395 
	C542.981140,514.956055 542.140869,514.260498 536.542908,515.087524 
	C529.132141,516.182434 527.015015,514.355896 527.003601,506.797729 
	C526.988831,496.984955 526.874756,487.169983 527.040100,477.359955 
	C527.169739,469.664825 527.880127,461.976807 527.916809,454.283630 
	C527.945190,448.339142 527.182678,442.395172 527.038147,436.444458 
	C526.871704,429.594727 527.052551,422.737213 526.965515,415.884552 
	C526.938477,413.754303 526.224792,411.603577 526.398499,409.509766 
	C526.523804,407.999847 527.597778,406.568634 528.622559,405.051147 
	C528.996521,404.999969 529.156128,405.165314 529.098267,405.673645 
	C529.381958,419.797516 529.924500,433.411652 530.017761,447.028870 
	C530.155457,467.139709 529.968262,487.252747 529.938782,507.364899 
	C529.936646,508.792419 530.093079,510.220184 530.188965,511.875549 
	C534.738770,511.875549 538.856262,511.875549 543.286865,511.945740 
	C544.027283,512.031555 544.454590,512.047241 545.016907,512.511108 
	C545.578857,523.159973 546.005737,533.360535 546.432617,543.561096 
	C546.432617,543.561096 546.216064,543.779297 546.107788,543.888428 
z"/>
<path fill="#080708" opacity="1.000000" stroke="none" 
	d="
M640.596802,377.977173 
	C640.362793,375.905060 640.518494,373.811951 640.720642,371.093384 
	C635.413208,371.093384 630.375916,371.093384 624.749695,371.093384 
	C624.166321,362.140625 623.404968,353.755554 623.130371,345.354523 
	C622.829590,336.152466 623.025391,336.146057 612.720032,337.540009 
	C612.720032,346.285980 612.767151,355.185974 612.704651,364.085144 
	C612.656982,370.877777 612.595337,370.898712 605.898376,370.944336 
	C602.911316,370.964691 599.906494,370.686279 596.945740,370.949371 
	C595.938293,371.038940 595.041382,372.371643 594.026367,373.567230 
	C593.038757,373.364716 592.118652,372.731262 591.198547,372.097809 
	C593.072510,370.741577 594.787659,368.647278 596.857605,368.201569 
	C599.984070,367.528442 603.395508,368.283752 606.607971,367.852234 
	C607.844543,367.686127 609.872986,365.883057 609.826050,364.908295 
	C609.507080,358.276398 612.718628,351.793793 609.591003,344.843567 
	C608.472412,342.357666 610.642822,335.921295 612.859802,334.995880 
	C616.022034,333.675842 620.672913,335.536316 624.536682,336.592072 
	C625.358093,336.816559 625.859131,339.403412 625.944458,340.933350 
	C626.396362,349.033752 626.772644,357.141937 626.945374,365.252350 
	C627.004517,368.029266 627.919067,369.287201 630.728699,369.002869 
	C632.861633,368.786987 635.047729,368.266235 637.121765,368.543182 
	C639.031738,368.798187 641.931335,369.508606 642.422119,370.779938 
	C643.272888,372.983978 644.616882,376.242371 640.596802,377.977173 
z"/>
<path fill="#080708" opacity="1.000000" stroke="none" 
	d="
M593.425781,404.024597 
	C593.815491,409.722351 593.803040,415.442261 593.522949,421.850342 
	C593.165649,423.288971 593.075928,424.039459 592.986206,424.789917 
	C589.945190,423.626678 586.904175,422.463409 583.100830,421.008545 
	C582.711548,433.604004 582.339172,445.652283 581.599121,457.896240 
	C580.820496,455.578491 580.429443,453.061615 579.993164,450.552582 
	C579.492065,447.671265 578.950928,444.796906 578.320923,441.335876 
	C580.911194,434.627716 581.580627,426.838348 580.436035,418.010437 
	C582.260681,418.364929 583.978577,418.429749 585.474182,419.039551 
	C589.998474,420.884399 590.932983,420.330872 590.994202,415.323029 
	C591.026672,412.669678 590.800903,409.993134 591.094360,407.372192 
	C591.224854,406.206299 592.349976,405.151764 593.425781,404.024597 
z"/>
<path fill="#080708" opacity="1.000000" stroke="none" 
	d="
M641.414917,424.899902 
	C640.647217,410.306702 640.270813,395.614624 639.994446,380.462708 
	C640.713135,380.659363 641.853027,381.299805 641.873840,381.974731 
	C642.297607,395.739014 642.605469,409.507050 642.866638,423.275635 
	C642.876160,423.777222 642.175842,424.292267 641.414917,424.899902 
z"/>
<path fill="#080708" opacity="1.000000" stroke="none" 
	d="
M593.625854,377.094452 
	C594.053345,384.691986 594.085571,392.384552 594.017944,400.536530 
	C593.284119,400.182281 592.116028,399.378662 592.100403,398.553314 
	C591.975525,391.932526 592.043701,385.307281 592.143127,378.684753 
	C592.150757,378.181000 592.851868,377.687653 593.625854,377.094452 
z"/>
<path fill="#080708" opacity="1.000000" stroke="none" 
	d="
M440.922119,607.967102 
	C439.248016,610.391357 437.397766,612.546326 435.247131,614.843567 
	C434.423737,614.526428 433.900696,614.067078 433.377655,613.607666 
	C435.833771,611.637756 438.289856,609.667786 440.922119,607.967102 
z"/>
<path fill="#080708" opacity="1.000000" stroke="none" 
	d="
M397.835327,653.608398 
	C397.835327,653.608398 397.780304,653.277893 398.149597,652.906189 
	C398.633453,651.834778 398.748077,651.135132 398.862671,650.435425 
	C398.870636,650.104126 398.878601,649.772888 399.357941,649.140381 
	C399.917694,648.071411 400.006042,647.303589 400.094421,646.535828 
	C400.094452,646.535828 400.113495,646.503479 400.098450,646.488098 
	C401.346527,647.109558 402.609680,647.746338 403.979767,648.807800 
	C402.815063,650.704102 401.543457,652.175720 399.833496,653.941711 
	C399.191193,654.412231 399.046326,654.628113 398.960571,654.883606 
	C398.960571,654.883606 398.984863,654.956482 398.704071,654.787964 
	C398.227295,654.282410 398.031311,653.945435 397.835327,653.608398 
z"/>
<path fill="#080708" opacity="1.000000" stroke="none" 
	d="
M412.938080,638.996338 
	C411.585297,641.082825 410.058350,642.896301 408.232422,644.846191 
	C407.415192,644.516296 406.896942,644.050049 406.378662,643.583740 
	C408.507111,641.963562 410.635498,640.343384 412.938080,638.996338 
z"/>
<path fill="#080708" opacity="1.000000" stroke="none" 
	d="
M430.943817,619.010620 
	C429.461700,621.205139 427.803253,623.121521 425.892853,625.220215 
	C424.557861,621.033325 427.064178,619.422852 430.943817,619.010620 
z"/>
<path fill="#080708" opacity="1.000000" stroke="none" 
	d="
M424.992065,625.472168 
	C424.620422,626.631226 423.834625,627.614685 422.845276,628.707275 
	C419.807587,625.729187 422.020233,625.418030 424.992065,625.472168 
z"/>
<path fill="#080708" opacity="1.000000" stroke="none" 
	d="
M400.772949,641.699707 
	C400.395569,641.102966 400.345703,640.783508 400.526642,640.219116 
	C401.335632,640.598328 402.040131,641.202759 402.744629,641.807251 
	C402.154419,641.870422 401.564240,641.933594 400.772949,641.699707 
z"/>
<path fill="#080708" opacity="1.000000" stroke="none" 
	d="
M420.681396,630.328430 
	C420.540527,631.160034 420.233521,631.591431 419.709595,632.102051 
	C419.172424,631.574097 418.852203,630.966980 418.531982,630.359802 
	C419.193054,630.215942 419.854156,630.072083 420.681396,630.328430 
z"/>
<path fill="#080708" opacity="1.000000" stroke="none" 
	d="
M416.018402,636.012695 
	C415.527832,635.720276 415.015442,635.418152 414.503082,635.116089 
	C414.681274,634.909363 414.859467,634.702637 415.037628,634.495911 
	C415.338074,634.822937 415.638489,635.149902 415.981384,635.759766 
	C416.023834,636.042603 415.996613,636.003113 416.018402,636.012695 
z"/>
<path fill="#0A0A0A" opacity="1.000000" stroke="none" 
	d="
M397.605164,653.856140 
	C398.031311,653.945435 398.227295,654.282410 398.665741,654.785400 
	C398.496765,655.466492 398.085358,655.981567 397.447968,656.613403 
	C397.273010,655.854675 397.324036,654.979309 397.605164,653.856140 
z"/>
<path fill="#141414" opacity="1.000000" stroke="none" 
	d="
M593.120728,424.947693 
	C593.075928,424.039459 593.165649,423.288971 593.430664,422.315430 
	C593.724365,422.881683 593.842712,423.671021 593.809021,424.834076 
	C593.656982,425.207825 593.255188,425.105469 593.120728,424.947693 
z"/>
<path fill="#0A0A0A" opacity="1.000000" stroke="none" 
	d="
M399.164307,654.819519 
	C399.046326,654.628113 399.191193,654.412231 399.562866,654.133057 
	C399.770111,654.352051 399.649261,654.593811 399.164307,654.819519 
z"/>
<path fill="#0A0A0A" opacity="1.000000" stroke="none" 
	d="
M399.854523,646.668152 
	C400.006042,647.303589 399.917694,648.071411 399.484070,648.919556 
	C399.297424,648.266724 399.456024,647.533630 399.854523,646.668152 
z"/>
<path fill="#0A0A0A" opacity="1.000000" stroke="none" 
	d="
M398.609314,650.688232 
	C398.748077,651.135132 398.633453,651.834778 398.249542,652.771729 
	C398.105469,652.319702 398.230713,651.630432 398.609314,650.688232 
z"/>
<path fill="#FDFDFD" opacity="1.000000" stroke="none" 
	d="
M437.971008,336.018372 
	C438.263000,348.388245 443.442566,356.981079 454.404999,362.334564 
	C474.095062,371.950165 493.551147,382.044220 513.216553,391.711517 
	C516.298218,393.226440 517.315369,394.569550 517.138367,398.221161 
	C516.356445,414.357300 516.142273,430.520447 515.653748,446.671722 
	C515.548645,450.146240 515.157532,453.612061 514.875671,457.384003 
	C514.203308,457.289581 513.572754,457.342896 513.075256,457.110992 
	C481.590576,442.433807 450.109924,427.747894 418.653442,413.010437 
	C415.801880,411.674438 413.126404,409.966248 410.345215,408.475677 
	C391.376251,398.309387 380.316681,382.564056 377.577484,361.241180 
	C374.422363,336.680511 374.179871,312.005707 377.330414,287.472321 
	C380.516937,262.658844 394.477325,243.883682 413.319458,228.412155 
	C428.169495,216.218536 445.634796,210.269150 464.565521,210.134216 
	C517.373901,209.757797 570.189514,209.769974 622.997131,210.223480 
	C643.499268,210.399536 661.847900,217.070404 675.693176,233.225189 
	C683.763245,242.641373 688.140320,253.716614 688.827209,265.962463 
	C689.618042,280.061798 689.615479,294.205200 689.998108,308.328369 
	C690.050964,310.280640 690.336670,312.226562 690.554382,314.610168 
	C669.810730,314.610168 649.125183,314.610168 628.475342,314.610168 
	C628.475342,306.566376 628.683716,298.601990 628.384216,290.656738 
	C628.242188,286.887909 627.610229,282.986176 626.358521,279.441895 
	C623.696228,271.903076 618.381836,268.430328 610.864258,268.447357 
	C566.884094,268.547028 522.903137,268.823456 478.924042,268.647064 
	C457.155731,268.559753 441.382996,282.860931 438.456268,301.323700 
	C436.687195,312.483673 438.022308,324.135742 437.971008,336.018372 
z"/>
<path fill="#0D0D0D" opacity="1.000000" stroke="none" 
	d="
M360.168823,758.734497 
	C358.246765,763.422668 354.588684,764.737061 350.391846,764.822754 
	C343.925171,764.954834 337.453827,764.857544 330.563721,764.857544 
	C330.563721,756.890747 330.563721,749.045166 330.563721,740.622498 
	C338.457764,741.042847 346.370575,741.214417 354.225372,741.980713 
	C358.589813,742.406555 361.473694,747.036560 361.370331,752.517822 
	C361.333557,754.468079 360.673065,756.406555 360.168823,758.734497 
z"/>
<path fill="#12C841" opacity="1.000000" stroke="none" 
	d="
M482.745056,580.788635 
	C471.609131,581.902954 471.602722,581.902893 471.669586,570.411743 
	C471.717072,562.252991 471.784882,554.094421 471.913544,545.472656 
	C472.323944,547.211487 472.920044,549.409058 472.957916,551.616211 
	C473.082275,558.867493 472.997467,566.122192 473.005707,573.375610 
	C473.013000,579.804932 473.021027,579.788513 479.593475,580.014526 
	C480.556946,580.047607 481.512115,580.322510 482.745056,580.788635 
z"/>
<path fill="#141414" opacity="1.000000" stroke="none" 
	d="
M515.671753,542.012085 
	C515.777466,550.882019 515.677307,560.143677 515.293457,569.713135 
	C515.161804,560.815186 515.313843,551.609558 515.671753,542.012085 
z"/>
<path fill="#12C841" opacity="1.000000" stroke="none" 
	d="
M485.887299,580.832397 
	C485.820312,581.040955 485.660583,581.089050 485.253784,581.098999 
	C485.269318,580.931152 485.531952,580.801514 485.887299,580.832397 
z"/>
<path fill="#FAFAFA" opacity="1.000000" stroke="none" 
	d="
M194.884674,776.082092 
	C188.526901,774.497314 182.412384,773.436279 176.648560,771.388184 
	C165.665070,767.485474 160.951248,759.419312 161.162262,746.253540 
	C161.324173,736.150696 166.437424,729.418335 176.952713,725.656921 
	C186.929504,722.088135 197.051453,720.798279 207.161697,724.937561 
	C216.600143,728.801697 221.682022,737.672607 220.446747,747.977356 
	C216.215836,747.977356 211.898239,748.205505 207.632477,747.835754 
	C206.383774,747.727478 204.533539,746.088562 204.254852,744.857788 
	C203.437439,741.247864 201.450287,739.102966 198.091187,737.885132 
	C191.982468,735.670410 185.933289,736.493896 181.034592,740.175598 
	C178.780609,741.869690 177.695343,746.067688 177.446243,749.237610 
	C177.142868,753.098145 180.104095,755.484314 183.772705,756.585327 
	C191.410507,758.877441 199.189163,760.771179 206.679550,763.468384 
	C221.015457,768.630493 225.892761,776.164185 224.631241,790.032898 
	C223.498566,802.485046 215.863831,810.705444 201.835861,812.408630 
	C193.874786,813.375122 185.455490,813.087036 177.572464,811.606873 
	C164.638168,809.178162 157.559921,797.796692 159.583313,784.821045 
	C159.997513,784.682251 160.456696,784.383911 160.904007,784.400696 
	C165.701462,784.581482 170.497025,784.811951 175.607025,785.043030 
	C175.759888,786.685669 175.851883,788.124817 176.033752,789.552551 
	C176.951126,796.754150 183.772659,800.572937 193.970993,799.613708 
	C204.935623,798.582458 208.504684,795.288696 208.169189,786.954529 
	C207.991318,782.535583 205.862457,779.775574 201.940628,778.252686 
	C199.777771,777.412842 197.507904,776.848633 194.884674,776.082092 
z"/>
<path fill="#FDFDFD" opacity="1.000000" stroke="none" 
	d="
M231.096603,726.112305 
	C252.936356,726.064880 274.728088,725.911499 296.519287,725.971436 
	C297.415131,725.973877 298.980042,727.923584 299.073975,729.061707 
	C299.375549,732.715393 300.518372,737.617859 298.681641,739.732300 
	C297.076630,741.580078 291.882538,740.360474 288.272949,740.403992 
	C283.805664,740.457825 279.337250,740.416809 274.343933,740.416809 
	C274.343933,764.286743 274.343933,787.795898 274.343933,811.492432 
	C269.049255,811.492432 264.285248,811.492432 258.870850,811.492432 
	C258.870850,787.717041 258.870850,764.073486 258.870850,740.413452 
	C249.953812,740.413452 241.690414,740.413452 232.910141,740.413452 
	C232.345093,736.219971 231.721558,731.592468 231.140579,726.553284 
	C231.183136,726.141663 231.048492,726.044739 231.096603,726.112305 
z"/>
<path fill="#12C841" opacity="1.000000" stroke="none" 
	d="
M544.881836,512.062866 
	C544.454590,512.047241 544.027283,512.031555 543.042480,511.680115 
	C540.116882,511.139435 537.680054,511.207733 535.404297,510.635590 
	C533.836304,510.241425 531.259216,508.986542 531.239685,508.071381 
	C531.067749,500.018311 531.441223,491.955811 531.512878,483.894836 
	C531.620789,471.759827 531.844177,459.619141 531.594238,447.489563 
	C531.344788,435.386810 530.509705,423.297119 530.079773,411.196381 
	C529.985596,408.543884 531.357117,407.027008 534.402527,406.921600 
	C537.812866,406.803528 541.202271,406.080109 544.651123,405.613281 
	C544.651123,395.206177 544.651123,385.257751 544.651123,375.309326 
	C544.527832,374.782745 544.404541,374.256195 544.463135,373.178345 
	C544.771118,372.199738 544.897339,371.772400 545.023560,371.345062 
	C545.462036,371.240204 545.900574,371.135376 546.773438,371.229919 
	C547.469421,371.328857 547.731079,371.228455 547.992798,371.128052 
	C549.065430,371.070679 550.138123,371.013306 551.749634,371.227509 
	C552.537842,371.739441 552.835571,371.851227 553.181641,371.834442 
	C553.181641,371.834442 553.082825,371.855560 553.076416,372.192566 
	C553.283081,373.327972 553.496094,374.126434 553.709106,374.924896 
	C553.752319,375.410400 553.795532,375.895905 553.543579,377.073242 
	C553.162292,383.904572 553.020996,390.043884 553.001831,396.183594 
	C552.962646,408.732819 552.991821,408.748962 565.489197,407.080688 
	C568.508423,406.677673 569.982483,407.387848 570.080933,410.939148 
	C570.576660,428.809937 571.400574,446.671326 571.979858,464.540222 
	C572.420288,478.122498 572.620178,491.712494 573.032959,505.295807 
	C573.136230,508.693481 571.860962,510.191895 568.388428,510.039581 
	C564.739258,509.879486 561.051453,509.760071 557.435974,510.144318 
	C556.217468,510.273834 555.168579,511.999420 554.042236,512.995483 
	C554.042175,512.995483 554.030273,513.020508 553.627991,513.113953 
	C552.818787,514.862061 552.092896,516.510559 552.060425,518.172546 
	C551.924683,525.119202 552.072388,532.071777 551.905640,539.017090 
	C551.882690,539.972839 550.677734,540.900208 550.020020,541.840759 
	C549.349182,540.915405 548.132690,540.012390 548.093811,539.061157 
	C547.778687,531.356262 547.805054,523.636108 547.408081,515.937073 
	C547.339478,514.605774 545.762207,513.352295 544.881836,512.062866 
z"/>
<path fill="#16C343" opacity="1.000000" stroke="none" 
	d="
M554.351929,512.862549 
	C555.168579,511.999420 556.217468,510.273834 557.435974,510.144318 
	C561.051453,509.760071 564.739258,509.879486 568.388428,510.039581 
	C571.860962,510.191895 573.136230,508.693481 573.032959,505.295807 
	C572.620178,491.712494 572.420288,478.122498 571.979858,464.540222 
	C571.400574,446.671326 570.576660,428.809937 570.080933,410.939148 
	C569.982483,407.387848 568.508423,406.677673 565.489197,407.080688 
	C552.991821,408.748962 552.962646,408.732819 553.001831,396.183594 
	C553.020996,390.043884 553.162292,383.904572 553.472961,377.433533 
	C553.697571,386.228119 553.697571,395.354218 553.697571,405.144348 
	C559.870178,405.144348 565.719543,405.144348 571.653198,405.144348 
	C572.887939,440.926758 574.099670,476.042084 575.328064,511.640656 
	C567.770630,512.038818 561.216125,512.384216 554.351929,512.862549 
z"/>
<path fill="#16C343" opacity="1.000000" stroke="none" 
	d="
M544.497192,375.726501 
	C544.651123,385.257751 544.651123,395.206177 544.651123,405.613281 
	C541.202271,406.080109 537.812866,406.803528 534.402527,406.921600 
	C531.357117,407.027008 529.985596,408.543884 530.079773,411.196381 
	C530.509705,423.297119 531.344788,435.386810 531.594238,447.489563 
	C531.844177,459.619141 531.620789,471.759827 531.512878,483.894836 
	C531.441223,491.955811 531.067749,500.018311 531.239685,508.071381 
	C531.259216,508.986542 533.836304,510.241425 535.404297,510.635590 
	C537.680054,511.207733 540.116882,511.139435 542.729370,511.609924 
	C538.856262,511.875549 534.738770,511.875549 530.188965,511.875549 
	C530.093079,510.220184 529.936646,508.792419 529.938782,507.364899 
	C529.968262,487.252747 530.155457,467.139709 530.017761,447.028870 
	C529.924500,433.411652 529.381958,419.797516 529.177612,405.756836 
	C534.061890,405.331635 538.808960,405.331635 544.343201,405.331635 
	C544.343201,395.168274 544.343201,385.655975 544.497192,375.726501 
z"/>
<path fill="#16C343" opacity="1.000000" stroke="none" 
	d="
M545.016907,512.511108 
	C545.762207,513.352295 547.339478,514.605774 547.408081,515.937073 
	C547.805054,523.636108 547.778687,531.356262 548.093811,539.061157 
	C548.132690,540.012390 549.349182,540.915405 550.020020,541.840759 
	C550.677734,540.900208 551.882690,539.972839 551.905640,539.017090 
	C552.072388,532.071777 551.924683,525.119202 552.060425,518.172546 
	C552.092896,516.510559 552.818787,514.862061 553.621216,513.126038 
	C554.016724,523.015808 554.016724,532.986877 554.016724,543.773010 
	C551.698059,543.773010 549.470093,543.773010 546.837402,543.667053 
	C546.005737,533.360535 545.578857,523.159973 545.016907,512.511108 
z"/>
<path fill="#0A0A0A" opacity="1.000000" stroke="none" 
	d="
M577.031006,468.718201 
	C577.147522,467.447418 577.282227,466.535645 577.416870,465.623901 
	C577.792786,465.611725 578.168640,465.599548 578.544556,465.587402 
	C578.544556,467.087097 578.544556,468.586792 578.544556,470.086487 
	C578.046082,469.750092 577.547607,469.413666 577.031006,468.718201 
z"/>
<path fill="#16C343" opacity="1.000000" stroke="none" 
	d="
M553.792847,374.599670 
	C553.496094,374.126434 553.283081,373.327972 553.125061,372.206177 
	C553.412292,372.680054 553.644409,373.477264 553.792847,374.599670 
z"/>
<path fill="#16C343" opacity="1.000000" stroke="none" 
	d="
M544.787842,371.435730 
	C544.897339,371.772400 544.771118,372.199738 544.472168,372.772064 
	C544.383606,372.453491 544.467834,371.989929 544.787842,371.435730 
z"/>
<path fill="#16C343" opacity="1.000000" stroke="none" 
	d="
M547.747253,371.089050 
	C547.731079,371.228455 547.469421,371.328857 547.111389,371.290466 
	C547.015076,371.151642 547.501709,371.050049 547.747253,371.089050 
z"/>
<path fill="#16C343" opacity="1.000000" stroke="none" 
	d="
M553.092651,371.583496 
	C552.835571,371.851227 552.537842,371.739441 552.147583,371.300415 
	C552.339050,371.178650 552.671387,371.255585 553.092651,371.583496 
z"/>
<path fill="#F8F8F8" opacity="1.000000" stroke="none" 
	d="
M398.310486,761.000000 
	C398.311340,749.041748 398.311340,737.583618 398.311340,725.729858 
	C402.615784,725.729858 407.815979,725.729858 413.455811,725.729858 
	C413.455811,754.332153 413.455811,782.656677 413.455811,811.357727 
	C408.499207,811.357727 403.445129,811.357727 398.309601,811.357727 
	C398.309601,794.623108 398.309601,778.061646 398.310486,761.000000 
z"/>
</svg>